<svg xmlns="http://www.w3.org/2000/svg" width="500" height="500" viewBox="0 0 500 500" version="1.1"><path d="M 113.246 61.254 L 69 105.508 69 250.508 L 69 395.508 113.504 440.004 L 158.008 484.500 250 484.500 L 341.991 484.500 386.496 440.004 L 431 395.508 431 250.500 L 431 105.492 386.746 61.246 L 342.492 17 249.992 17 L 157.492 17 113.246 61.254 M 121.234 69.278 L 80 110.556 80 250.383 L 80 390.210 121.684 431.605 L 163.367 473 250.152 473 L 336.937 473 378.468 431.382 L 420 389.764 419.994 250.632 L 419.987 111.500 378.313 69.750 L 336.639 28 249.553 28 L 162.468 28 121.234 69.278 M 196.234 144.266 L 185 155.531 185 250.532 L 185 345.533 196.266 356.766 L 207.531 368 250.032 368 L 292.533 368 303.766 356.734 L 315 345.469 315 250.429 L 315 155.389 303.654 144.195 L 292.307 133 249.887 133 L 207.467 133 196.234 144.266 M 203.727 152.772 L 196 160.544 196 250.546 L 196 340.547 203.772 348.273 L 211.544 356 250.046 356 L 288.547 356 296.273 348.228 L 304 340.456 304 250.454 L 304 160.453 296.228 152.727 L 288.456 145 249.954 145 L 211.453 145 203.727 152.772" stroke="none" fill="#070707" fill-rule="evenodd"/><path d="M 112.996 60.750 L 68.500 105.500 113.004 61.250 L 157.508 17 250 17 L 342.492 17 386.996 61.250 L 431.500 105.500 387.004 60.750 L 342.508 16 250 16 L 157.492 16 112.996 60.750 M 143.990 46.750 L 125.500 65.500 144.021 47.239 L 162.541 28.978 250.675 29.239 C 299.149 29.383, 338.601 29.163, 338.346 28.750 C 338.091 28.338, 298.416 28, 250.181 28 L 162.480 28 143.990 46.750 M 170.753 41.707 C 168.735 42.019, 158.431 51.721, 131.935 78.258 C 112.096 98.128, 95.445 115.168, 94.932 116.126 C 94.369 117.179, 94 170.835, 94 251.610 L 94 385.352 130.750 422.156 L 167.500 458.959 249.695 458.980 L 331.890 459 368.067 422.611 C 387.965 402.597, 404.633 385.610, 405.107 384.861 C 405.581 384.112, 405.976 323.740, 405.985 250.700 C 405.998 136.169, 405.799 117.529, 404.540 115.200 C 403.738 113.715, 387.083 96.525, 367.530 77 L 331.978 41.500 252.739 41.391 C 209.158 41.331, 172.264 41.473, 170.753 41.707 M 109.980 80.750 L 100.500 90.500 110.250 81.020 C 119.306 72.215, 120.455 71, 119.730 71 C 119.582 71, 115.194 75.388, 109.980 80.750 M 87.473 103.250 L 80.500 110.500 87.750 103.527 C 91.737 99.692, 95 96.429, 95 96.277 C 95 95.543, 93.950 96.516, 87.473 103.250 M 68.487 250.500 C 68.487 330.250, 68.605 362.727, 68.750 322.672 C 68.895 282.616, 68.895 217.366, 68.750 177.672 C 68.605 137.977, 68.487 170.750, 68.487 250.500 M 431.487 250.500 C 431.487 330.250, 431.605 362.727, 431.750 322.672 C 431.895 282.616, 431.895 217.366, 431.750 177.672 C 431.605 137.977, 431.487 170.750, 431.487 250.500 M 416.750 109.064 L 419 111.629 419 250.500 L 419 389.371 416.750 391.936 L 414.500 394.500 417.250 392.076 L 420 389.651 420 250.500 L 420 111.349 417.250 108.924 L 414.500 106.500 416.750 109.064 M 80.486 250.500 C 80.486 327.500, 80.605 358.852, 80.750 320.172 C 80.895 281.491, 80.895 218.491, 80.750 180.172 C 80.605 141.852, 80.486 173.500, 80.486 250.500 M 185.737 134.762 L 171 149.524 171 250.437 L 171 351.350 185.707 366.175 L 200.414 381 249.469 381 L 298.524 381 313.762 365.738 L 329 350.477 329 250.396 L 329 150.316 313.797 135.158 L 298.594 120 249.535 120 L 200.475 120 185.737 134.762 M 195.483 144.250 L 184.500 155.500 195.750 144.517 C 201.938 138.476, 207 133.414, 207 133.267 C 207 132.546, 205.684 133.801, 195.483 144.250 M 303.982 144.250 C 313.718 154.235, 315 155.454, 315 154.732 C 315 154.585, 310.163 149.747, 304.250 143.982 L 293.500 133.500 303.982 144.250 M 218.296 145.744 C 222.583 145.932, 229.333 145.931, 233.296 145.742 C 237.258 145.552, 233.750 145.399, 225.500 145.400 C 217.250 145.401, 214.008 145.556, 218.296 145.744 M 267.296 145.744 C 271.583 145.932, 278.333 145.931, 282.296 145.742 C 286.258 145.552, 282.750 145.399, 274.500 145.400 C 266.250 145.401, 263.008 145.556, 267.296 145.744 M 298.750 156.038 L 303 160.576 303 250.459 C 303 334.604, 302.888 340.475, 301.250 342.421 C 299.502 344.498, 299.502 344.498, 301.750 342.595 L 304 340.690 304 250.553 L 304 160.416 299.250 155.958 L 294.500 151.500 298.750 156.038 M 184.480 250.500 C 184.480 302.750, 184.601 324.272, 184.750 298.326 C 184.898 272.380, 184.898 229.630, 184.750 203.326 C 184.601 177.022, 184.480 198.250, 184.480 250.500 M 315.480 250 C 315.480 301.975, 315.601 323.237, 315.750 297.250 C 315.898 271.262, 315.898 228.737, 315.750 202.750 C 315.601 176.762, 315.480 198.025, 315.480 250 M 197.649 158.835 C 196.125 160.519, 196.010 167.424, 196.250 242.585 L 196.512 324.500 196.756 242.579 C 196.978 167.966, 197.148 160.494, 198.655 158.829 C 199.565 157.823, 200.085 157, 199.810 157 C 199.535 157, 198.563 157.826, 197.649 158.835 M 196.079 339.095 C 196.036 339.972, 197.012 341.547, 198.250 342.595 C 200.481 344.484, 200.486 344.483, 198.880 342.500 C 197.990 341.400, 197.013 339.825, 196.709 339 C 196.241 337.727, 196.146 337.741, 196.079 339.095 M 294 349.500 C 291.571 351.975, 289.809 354, 290.084 354 C 290.359 354, 292.571 351.975, 295 349.500 C 297.429 347.025, 299.191 345, 298.916 345 C 298.641 345, 296.429 347.025, 294 349.500 M 195.500 357 C 201.531 363.050, 206.691 368, 206.966 368 C 207.241 368, 202.531 363.050, 196.500 357 C 190.469 350.950, 185.309 346, 185.034 346 C 184.759 346, 189.469 350.950, 195.500 357 M 303.483 357.250 L 292.500 368.500 303.750 357.517 C 309.938 351.476, 315 346.414, 315 346.267 C 315 345.546, 313.684 346.801, 303.483 357.250 M 230.250 355.749 C 241.112 355.910, 258.887 355.910, 269.750 355.749 C 280.613 355.587, 271.725 355.455, 250 355.455 C 228.275 355.455, 219.387 355.587, 230.250 355.749 M 242.250 368.745 C 247.062 368.928, 254.937 368.928, 259.750 368.745 C 264.563 368.561, 260.625 368.411, 251 368.411 C 241.375 368.411, 237.438 368.561, 242.250 368.745 M 84.500 395 C 86.648 397.200, 88.844 399, 89.379 399 C 90.627 399, 82.817 391.039, 81.547 391.017 C 81.023 391.008, 82.352 392.800, 84.500 395 M 112.996 440.250 L 157.492 485 176.496 484.773 L 195.500 484.547 176.500 484.257 L 157.500 483.967 113 439.733 L 68.500 395.500 112.996 440.250 M 386.549 439.951 C 350.807 475.699, 342.036 483.975, 339.553 484.291 L 336.500 484.680 339.504 484.840 C 342.204 484.984, 347.023 480.485, 387 440.500 C 411.470 416.025, 431.267 396, 430.992 396 C 430.716 396, 410.717 415.778, 386.549 439.951 M 91 400.813 C 91 401.666, 95.096 405.603, 98.500 408.021 C 99.600 408.802, 98.475 407.320, 96 404.728 C 91.215 399.716, 91 399.548, 91 400.813 M 101 410.409 C 101 411.539, 108.936 419.397, 109.504 418.830 C 109.754 418.580, 107.943 416.397, 105.479 413.979 C 103.016 411.562, 101 409.955, 101 410.409 M 394.086 414.510 C 388.153 420.550, 389.225 420.770, 395.500 414.800 C 398.250 412.183, 400.050 410.036, 399.500 410.029 C 398.950 410.021, 396.514 412.038, 394.086 414.510 M 112.868 422.559 C 113.975 423.967, 116.145 426.077, 117.691 427.249 C 119.236 428.420, 118.475 427.272, 116 424.697 C 110.992 419.487, 109.824 418.690, 112.868 422.559 M 122.009 431.500 C 123.904 434.192, 129.144 439.190, 129.596 438.738 C 129.795 438.538, 127.853 436.378, 125.279 433.938 C 122.706 431.497, 121.234 430.400, 122.009 431.500 M 131 440.213 C 131 440.559, 133.025 442.867, 135.500 445.342 C 137.975 447.817, 140 449.521, 140 449.129 C 140 448.737, 137.975 446.429, 135.500 444 C 133.025 441.571, 131 439.867, 131 440.213 M 141 450.293 C 141 451.007, 148.913 459, 149.621 459 C 150.448 459, 149.827 458.247, 145.500 454 C 143.025 451.571, 141 449.903, 141 450.293 M 356.405 452.155 L 354.500 454.310 357.250 452.540 C 360.086 450.715, 360.622 450, 359.155 450 C 358.690 450, 357.453 450.970, 356.405 452.155 M 351.500 457 C 350.505 458.100, 349.985 459, 350.345 459 C 350.705 459, 351.900 458.100, 353 457 C 354.100 455.900, 354.620 455, 354.155 455 C 353.690 455, 352.495 455.900, 351.500 457 M 346.500 462 C 345.505 463.100, 345.194 464, 345.810 464 C 346.426 464, 347.411 463.100, 348 462 C 348.589 460.900, 348.899 460, 348.690 460 C 348.481 460, 347.495 460.900, 346.500 462 M 341.405 467.146 C 339.510 469.280, 339.512 469.285, 341.750 468.110 C 342.988 467.461, 344 466.495, 344 465.965 C 344 464.544, 343.521 464.762, 341.405 467.146 M 161 470.771 C 161 471.329, 161.712 472.059, 162.582 472.393 C 164.862 473.268, 336.274 473.113, 337.655 472.235 C 338.290 471.831, 299.420 471.620, 251.277 471.766 C 186.939 471.962, 163.380 471.731, 162.372 470.894 C 161.524 470.190, 161 470.143, 161 470.771 M 317.750 484.740 C 321.188 484.936, 326.813 484.936, 330.250 484.740 C 333.688 484.545, 330.875 484.385, 324 484.385 C 317.125 484.385, 314.313 484.545, 317.750 484.740" stroke="none" fill="#c21d34" fill-rule="evenodd"/></svg>