<svg xmlns="http://www.w3.org/2000/svg" width="2000" height="1949" viewBox="0 0 2000 1949" version="1.1"><path d="M 522.500 1.490 C 450.585 9.699, 375.864 36.437, 320.151 73.899 C 301.600 86.372, 289.299 96.655, 256.500 127.104 C 222.433 158.730, 179.521 204.739, 147.690 243.768 L 138.500 255.036 134 254.493 C 79.284 247.891, 63.855 246.766, 33.832 247.192 L 12.163 247.500 24.832 267.062 C 53.648 311.558, 73 346.563, 73 354.192 C 73 355.311, 70.810 360.113, 68.133 364.863 C 32.212 428.614, 8.894 511.104, 1.807 599.500 C -0.152 623.928, 0.164 690.159, 2.341 711.784 C 9.284 780.724, 21.625 830.739, 48.570 899.135 C 78.066 974.009, 112.104 1034.052, 153.085 1083.500 C 172.447 1106.862, 207.395 1139.188, 238.341 1162.358 C 275.173 1189.936, 301.745 1199.788, 358.976 1207.086 C 386.445 1210.589, 392.374 1210.576, 423.500 1206.947 C 439.971 1205.027, 473.900 1199.397, 486.846 1196.436 C 494.344 1194.721, 492.025 1193.255, 513 1212.969 C 520.425 1219.947, 540.450 1238.640, 557.500 1254.507 C 605.270 1298.965, 606.359 1300.046, 610.910 1307.590 C 631.332 1341.439, 650.050 1401.341, 655.080 1448.948 C 656.435 1461.774, 657.706 1468.922, 662.999 1493.500 C 668.171 1517.510, 670.921 1530.897, 682.002 1586 C 703.199 1691.408, 704.614 1697.275, 713.619 1717.078 C 731.909 1757.299, 774.780 1820.147, 788.912 1827.454 C 792.005 1829.054, 807.740 1830.996, 817.711 1831.009 C 821.445 1831.013, 826.801 1831.294, 829.614 1831.632 C 834.678 1832.240, 834.767 1832.312, 838.599 1838.873 C 844.743 1849.394, 855.612 1865.586, 863.486 1875.951 C 887.858 1908.031, 909.892 1925.549, 940.179 1936.925 C 962.066 1945.146, 982.580 1948.985, 1004.678 1948.994 C 1021.392 1949.001, 1030.370 1947.886, 1045.735 1943.897 C 1080.296 1934.923, 1104.081 1919.281, 1128.446 1889.500 C 1141.103 1874.030, 1147.364 1864.983, 1164.261 1837.750 C 1166.754 1833.732, 1167.693 1832.996, 1170.354 1832.974 C 1179.745 1832.896, 1204.598 1830.916, 1208.134 1829.964 C 1223.506 1825.825, 1275.517 1748.636, 1291.663 1706 C 1295.983 1694.594, 1300.465 1674.491, 1316.524 1594.500 C 1321.714 1568.650, 1328.026 1537.600, 1330.552 1525.500 C 1333.077 1513.400, 1336.024 1499.225, 1337.102 1494 C 1338.179 1488.775, 1339.928 1480.675, 1340.990 1476 C 1342.051 1471.325, 1343.596 1461.425, 1344.423 1454 C 1349.714 1406.483, 1363.360 1359.020, 1382.806 1320.500 C 1390.029 1306.193, 1390.843 1305.037, 1400.439 1295.468 C 1414.388 1281.560, 1506.022 1196.463, 1506.837 1196.662 C 1513.508 1198.288, 1549.368 1204.574, 1562.746 1206.462 C 1601.467 1211.928, 1613.282 1212.161, 1643.698 1208.062 C 1674.976 1203.846, 1691.731 1200.120, 1709.864 1193.349 C 1735.073 1183.934, 1751.911 1172.734, 1795.987 1136.058 C 1835.317 1103.333, 1872.555 1056.796, 1904.680 1000.224 C 1912.277 986.845, 1932.127 946.942, 1937.570 934.107 C 1957.798 886.405, 1970.705 850.189, 1979.942 815.209 C 1990.222 776.277, 1995.466 742.294, 1999.572 688 C 2000.579 674.689, 2000.941 625.390, 2000.017 627.500 C 1999.426 628.849, 1999.114 626.569, 1999.058 620.500 C 1998.853 598.348, 1994.123 556.849, 1988.400 527 C 1977.200 468.582, 1955.793 407.747, 1931.805 366.171 C 1929.162 361.590, 1927 356.988, 1927 355.944 C 1927 350.555, 1936.931 330.340, 1951.290 306.500 C 1959.007 293.687, 1980.385 259.933, 1984.693 253.760 C 1986.512 251.153, 1988 248.791, 1988 248.510 C 1988 247.626, 1950.217 247.974, 1933 249.018 C 1913.192 250.218, 1881.557 253.460, 1870.500 255.423 C 1864.396 256.506, 1862.245 256.565, 1861.425 255.671 C 1860.834 255.027, 1855.221 248.425, 1848.952 241 C 1820.568 207.381, 1781.477 164.472, 1762.859 146.500 C 1736.494 121.049, 1709.960 97.388, 1695.081 86.061 C 1646.385 48.993, 1572.527 18.054, 1506.478 7.056 C 1479.537 2.570, 1471.259 1.816, 1443.193 1.289 C 1396.031 0.403, 1368.552 4.303, 1314.292 19.581 C 1261.173 34.537, 1221.050 54.162, 1178.517 85.992 C 1115.177 133.391, 1073.182 183.464, 1041.409 249.473 C 1023.751 286.158, 1008.171 333.574, 1002.393 368.219 C 1001.410 374.115, 1000.419 378.752, 1000.190 378.524 C 999.962 378.295, 998.695 372.347, 997.374 365.304 C 991.909 336.165, 983.074 306.541, 969.993 273.500 C 964.512 259.654, 946.573 224.064, 937.865 209.757 C 915.857 173.601, 888.635 141.252, 856 112.474 C 816.547 77.684, 772.889 49.929, 732.564 34 C 697.515 20.156, 653.815 8.415, 614.860 2.376 C 600.431 0.139, 539.459 -0.446, 522.500 1.490 M 615.716 107.440 C 591.709 114.316, 570.657 134.935, 558.781 163.200 C 554.761 172.766, 543.464 224.122, 541.996 239.500 C 540.530 254.857, 536.592 276.343, 533.949 283.407 C 532.818 286.430, 529.902 291.117, 527.470 293.822 C 518.249 304.078, 515.485 314.052, 513.616 343.825 L 512.443 362.500 506.971 356.960 C 497.060 346.925, 491.375 333.243, 490.366 317 C 489.586 304.444, 491.134 294.368, 496.107 279.632 C 500.035 267.991, 500.180 267.116, 499.698 258 C 499.350 251.415, 498.286 245.585, 496.231 239 C 491.557 224.022, 486.418 211.217, 482.600 205.031 C 478.359 198.160, 477.636 195.134, 474.934 172.931 C 472.015 148.946, 468.291 135.327, 463.931 132.688 C 462.727 131.959, 457.268 135.166, 440.431 146.493 C 428.369 154.608, 416.614 163.060, 414.309 165.274 C 402.292 176.819, 397.112 198.319, 398.354 231.500 C 399.130 252.230, 400.312 262.303, 403.573 275.978 C 405.375 283.535, 406.207 290.364, 406.558 300.478 C 407.081 315.539, 408.215 321.435, 412.952 333.719 C 416.262 342.301, 424.857 357.453, 431.167 365.827 C 433.374 368.756, 435.023 371.310, 434.830 371.503 C 434.638 371.695, 431.998 370.198, 428.964 368.176 C 425.929 366.154, 412.972 357.571, 400.171 349.102 L 376.895 333.705 368.600 322.602 C 350.196 297.967, 342.199 280.085, 331.040 238.612 L 328.379 228.723 317.939 237.945 C 308.445 246.333, 265 290.135, 265 291.321 C 265 291.596, 270.512 294.439, 277.250 297.639 C 334.574 324.865, 366.983 342.827, 398 364.564 C 421.932 381.335, 450.703 405.816, 475.493 430.500 C 532.198 486.963, 570.223 538.550, 603.012 603.500 C 615.503 628.242, 619.862 638.480, 631.324 670 C 656.673 739.704, 659.543 752.366, 668.156 832.500 C 670.944 858.437, 671.376 865.953, 671.340 888 C 671.267 933.451, 668.698 958.602, 659.931 999.686 C 653.828 1028.285, 650.890 1037.405, 641.630 1056.500 C 627.569 1085.498, 610.598 1110.035, 587.116 1135.320 C 582.102 1140.719, 578 1145.478, 578 1145.895 C 578 1146.915, 662.735 1212.496, 670.187 1217.245 C 683.388 1225.656, 694.153 1240.698, 701.385 1260.836 C 702.834 1264.871, 706.502 1277.852, 709.536 1289.684 C 727.424 1359.438, 738.615 1388.685, 752.622 1402.290 C 757.620 1407.145, 761.595 1408.338, 770.958 1407.796 C 784.553 1407.009, 797.971 1399.182, 815.056 1382.072 C 834.836 1362.263, 847.791 1342.500, 871.645 1295.746 C 897.432 1245.199, 911.421 1224.029, 917.492 1226.359 C 918.826 1226.870, 919 1243.005, 919 1366.098 L 919 1505.258 912.250 1504.656 C 896.621 1503.260, 857.333 1502.806, 849.330 1503.928 C 801.449 1510.641, 762.863 1545.558, 755.947 1588.430 C 754.075 1600.031, 755.194 1621.768, 758.469 1637.442 C 762.036 1654.511, 769.970 1682.257, 774.499 1693.500 C 779.511 1705.942, 786.741 1719.263, 796.483 1734 C 804.729 1746.476, 818.544 1764.429, 823.277 1768.819 L 825.777 1771.139 866.966 1770.416 C 913.953 1769.591, 909.508 1770.616, 912.137 1760 C 914.169 1751.798, 913.874 1727.598, 911.612 1717 C 907.477 1697.622, 899.636 1677.849, 891.647 1666.654 C 887.312 1660.579, 875.832 1649.009, 869 1643.828 C 867.075 1642.368, 858.075 1636.559, 849 1630.918 C 833.536 1621.306, 832.111 1620.635, 826.306 1620.218 C 822.177 1619.922, 818.532 1620.312, 815.377 1621.387 C 810.178 1623.159, 803.441 1623.523, 802.550 1622.081 C 801.795 1620.859, 806.596 1605.761, 809.679 1599.660 C 814.251 1590.614, 818.986 1586.617, 831.317 1581.397 C 840.406 1577.550, 843.904 1576.580, 850 1576.221 C 864.356 1575.374, 888.655 1581.821, 904.627 1590.715 C 914.843 1596.404, 922.926 1602.877, 943.723 1622.028 C 952.400 1630.018, 968.762 1644.931, 980.082 1655.168 L 1000.665 1673.781 1030.582 1646.761 C 1047.037 1631.899, 1064.236 1616.204, 1068.803 1611.883 C 1088.270 1593.461, 1106.895 1583.950, 1133.457 1578.868 C 1148.037 1576.079, 1153.723 1576.601, 1167.018 1581.950 C 1179.396 1586.930, 1182.920 1589.404, 1187.530 1596.347 C 1190.924 1601.459, 1196.142 1614.447, 1197.335 1620.750 L 1197.950 1624 1193.101 1624 C 1190.434 1624, 1186.338 1623.325, 1184 1622.500 C 1179.128 1620.781, 1172.311 1620.551, 1168.554 1621.979 C 1162.978 1624.099, 1132.064 1644.188, 1124.714 1650.468 C 1114.810 1658.930, 1105.622 1670.444, 1101.244 1679.879 C 1095.887 1691.425, 1091.238 1705.061, 1088.848 1716.244 C 1085.909 1729.990, 1085.631 1753.351, 1088.291 1762.991 C 1089.276 1766.561, 1090.401 1769.798, 1090.791 1770.184 C 1091.181 1770.570, 1110.175 1771.278, 1133 1771.757 L 1174.500 1772.629 1178.267 1768.565 C 1183.619 1762.791, 1200.860 1739.881, 1206.536 1731 C 1212.969 1720.935, 1222.166 1703.261, 1225.921 1693.749 C 1231.923 1678.542, 1240.430 1646.633, 1243.456 1627.973 C 1245.466 1615.579, 1245.447 1596.087, 1243.415 1586.208 C 1235.919 1549.762, 1205.309 1519.073, 1165.948 1508.539 C 1149.665 1504.181, 1140.086 1503.500, 1113.899 1504.837 C 1101.029 1505.494, 1088.362 1506.025, 1085.750 1506.016 L 1081 1506 1081 1366.969 C 1081 1215.763, 1080.648 1224.758, 1086.415 1228.536 C 1090.735 1231.367, 1101.058 1246.121, 1111.250 1264.032 C 1112.668 1266.524, 1119.972 1280.659, 1127.480 1295.443 C 1143.173 1326.341, 1147.692 1334.445, 1157.343 1349 C 1167.649 1364.542, 1176.795 1375.642, 1188.374 1386.662 C 1209.553 1406.817, 1229.046 1414.119, 1242.860 1407.071 C 1257.298 1399.706, 1271.253 1365.708, 1290.505 1291 C 1293.978 1277.525, 1298.210 1262.890, 1299.910 1258.479 C 1306.397 1241.643, 1318.001 1225.998, 1329.293 1218.863 C 1334.420 1215.624, 1416.692 1152.495, 1420.407 1148.950 C 1422.272 1147.171, 1422.126 1146.923, 1413.871 1137.815 C 1388.961 1110.334, 1373.951 1089.040, 1360.554 1062.180 C 1348.860 1038.735, 1346.141 1030.393, 1339.003 996.068 C 1331.126 958.183, 1328.620 931.914, 1328.694 888 C 1328.732 865.684, 1329.191 858.317, 1332.370 829 C 1339.458 763.635, 1341.984 750.216, 1354.199 713 C 1361.062 692.089, 1375.989 650.791, 1381.307 638 C 1401.703 588.937, 1439.162 527.841, 1474.500 486 C 1509.813 444.188, 1553.270 402.245, 1589.500 375.004 C 1619.859 352.177, 1643.457 338.281, 1697.173 311.600 L 1735.845 292.390 1710.673 267.244 C 1687.546 244.142, 1673.480 231, 1671.879 231 C 1671.529 231, 1670.536 233.813, 1669.672 237.250 C 1664.786 256.684, 1655.347 284.407, 1650.029 294.943 C 1645.627 303.662, 1637.029 316.855, 1629.195 326.909 C 1622.811 335.103, 1621.939 335.782, 1595.072 353.492 C 1561.975 375.309, 1564.063 374.029, 1566 371.305 C 1580.331 351.144, 1588.609 334.705, 1591.918 319.836 C 1592.448 317.451, 1593.117 309.186, 1593.403 301.470 C 1593.776 291.447, 1594.629 284.529, 1596.391 277.252 C 1600.191 261.558, 1601.347 249.481, 1601.391 225 C 1601.436 199.984, 1600.580 194.059, 1594.979 180.605 C 1592.608 174.908, 1590.368 171.533, 1586.151 167.305 C 1578.370 159.503, 1538.041 132.499, 1536.006 133.728 C 1531.641 136.365, 1528.008 150.365, 1524.535 177.929 C 1522.510 193.994, 1521.646 198.149, 1519.546 201.929 C 1508.661 221.516, 1500 248.267, 1500 262.297 C 1500 268.326, 1500.676 271.630, 1503.517 279.476 C 1514.649 310.230, 1510.904 339.709, 1493.618 357.403 L 1487.661 363.500 1486.403 344.500 C 1484.519 316.043, 1481.671 305.396, 1473.562 296.500 C 1468.286 290.712, 1465.532 284.764, 1463.143 274 C 1460.527 262.211, 1459.384 254.710, 1457.962 240 C 1456.836 228.345, 1446.496 179.478, 1442.857 168.611 C 1430.808 132.627, 1396.265 104.632, 1367.258 107.340 C 1355.260 108.461, 1341.253 116.958, 1333.981 127.528 L 1331.015 131.839 1335.932 155.170 C 1338.636 168.001, 1341.366 183.176, 1341.998 188.892 C 1343.984 206.854, 1350.442 225.015, 1358.181 234.403 C 1359.869 236.451, 1364.100 239.927, 1367.582 242.126 C 1382.410 251.491, 1394.548 270.245, 1411.509 310 C 1421.463 333.332, 1434.848 368.257, 1433.162 366.500 C 1432.634 365.950, 1428.041 359.875, 1422.955 353 C 1410.429 336.070, 1396.586 319.624, 1386.065 309.172 C 1381.262 304.401, 1377.145 300.048, 1376.916 299.499 C 1376.687 298.950, 1367.950 293.352, 1357.500 287.059 C 1307.740 257.096, 1293.497 245.976, 1270.835 219.402 C 1257.482 203.743, 1245.614 192.930, 1237.434 188.969 C 1232.874 186.761, 1226.002 186.422, 1220.899 188.153 C 1211.083 191.484, 1198.464 204.302, 1187.953 221.618 C 1181.514 232.225, 1170.844 254.277, 1171.773 255.055 C 1172.173 255.389, 1174.524 256.240, 1176.998 256.946 C 1188.361 260.187, 1206.818 271.479, 1221.997 284.477 C 1236.954 297.285, 1243.926 307.171, 1249.072 322.871 C 1253.036 334.965, 1255.544 339.365, 1261.822 345.237 C 1274.080 356.703, 1303.688 370.995, 1319.276 372.972 C 1328.080 374.088, 1338.375 377.990, 1350.973 384.985 C 1383.412 402.997, 1399.560 420.010, 1409.994 447.167 C 1412.075 452.584, 1416 466.860, 1416 469.013 C 1416 469.662, 1411.162 465.294, 1405.250 459.306 C 1384.233 438.019, 1362.560 423.604, 1340.439 416.198 C 1322.093 410.056, 1305.723 409.594, 1281 414.521 C 1270.637 416.586, 1265.712 417.093, 1259.805 416.704 C 1250.361 416.081, 1245.668 414.030, 1229.500 403.454 C 1188.288 376.498, 1148.765 356.903, 1124.605 351.446 C 1120.813 350.590, 1117.347 350.253, 1116.902 350.698 C 1115.942 351.658, 1075.937 463.270, 1076.390 463.724 C 1076.562 463.895, 1080.031 463.315, 1084.101 462.434 C 1094.375 460.211, 1114.450 459.492, 1126.657 460.912 C 1153.701 464.056, 1173.599 473.262, 1204.371 496.867 C 1218.820 507.950, 1225.028 513.969, 1236.595 528.106 C 1252.087 547.042, 1253.671 548.155, 1279 557.905 C 1286.425 560.763, 1293.400 563.469, 1294.500 563.918 C 1296.266 564.638, 1296.040 564.927, 1292.567 566.392 C 1281.324 571.134, 1273.157 572.419, 1254 572.460 C 1232.719 572.506, 1225.400 571.322, 1207 564.858 C 1176.099 554.003, 1165.719 551.690, 1147.500 551.603 C 1135.138 551.544, 1123.804 553.427, 1115.928 556.848 C 1113.836 557.757, 1101.409 567.360, 1088.312 578.188 C 1065.166 597.326, 1055.417 606.166, 1018.598 641.406 L 1000.934 658.311 998.217 655.828 C 996.723 654.462, 982.327 640.834, 966.226 625.545 C 931.137 592.224, 890.420 558.068, 882 554.892 C 872.235 551.208, 861.563 549.714, 849 550.273 C 832.185 551.021, 821.202 553.615, 793.500 563.384 C 775.029 569.897, 759.520 572.397, 742 571.684 C 733.544 571.340, 725.471 570.381, 720.394 569.117 C 710.535 566.663, 703.583 563.973, 704.685 563.040 C 705.133 562.659, 710.844 560.400, 717.375 558.019 C 723.906 555.637, 733.805 551.396, 739.374 548.594 C 748.948 543.777, 749.927 542.984, 757.376 534 C 779.279 507.584, 779.157 507.699, 806.500 487.606 C 829.792 470.490, 848.301 462.641, 871.965 459.845 C 883.585 458.473, 909.210 459.333, 917.492 461.373 C 920.787 462.185, 923.598 462.736, 923.737 462.596 C 923.877 462.457, 920.138 451.578, 915.429 438.421 C 900.931 397.913, 892.051 373.016, 887.726 360.750 C 883.002 347.352, 883.967 347.945, 871.894 351.027 C 847.574 357.236, 810.496 375.988, 770.098 402.509 C 755.289 412.232, 750.207 414.539, 741.421 415.530 C 735.674 416.178, 733.104 415.855, 709 411.454 C 675.534 405.344, 642.911 416.157, 609.023 444.589 C 604.099 448.721, 596.411 456.016, 591.940 460.800 L 583.811 469.500 584.519 465 C 585.726 457.326, 590.017 444.900, 594.707 435.500 C 604.668 415.533, 617.780 402.164, 641 388.300 C 658.674 377.747, 672.429 372, 680.012 372 C 688.607 372, 719.656 358.349, 732.185 349.061 C 742.149 341.675, 746.180 335.966, 750.425 323.226 C 755.480 308.055, 759.754 301.226, 771.534 289.500 C 786.899 274.205, 807.156 260.773, 822.113 255.964 C 830.059 253.409, 830.165 255.167, 820.937 236.629 C 808.912 212.475, 794.085 193.740, 782.857 188.513 C 775.126 184.914, 767.172 185.054, 760.500 188.905 C 751.975 193.826, 741.999 203.024, 731.092 216.021 C 707.991 243.547, 692.784 255.532, 643.011 285.444 C 632.292 291.886, 623.261 297.578, 622.942 298.094 C 622.623 298.610, 618.076 303.453, 612.836 308.856 C 600.997 321.067, 590.675 333.417, 577.197 351.500 C 571.457 359.200, 566.588 365.690, 566.375 365.922 C 565.054 367.366, 576.079 338.550, 585.500 315.935 C 604.901 269.362, 616.390 251.146, 633.135 240.413 C 646.676 231.734, 655.127 213.128, 658.417 184.752 C 659.281 177.295, 660.215 170.587, 660.491 169.846 C 660.767 169.106, 662.787 159.964, 664.980 149.530 L 668.968 130.561 666.381 126.828 C 661.891 120.350, 653.260 113.017, 646.259 109.733 C 640.363 106.968, 638.287 106.531, 630 106.316 C 624.206 106.166, 618.634 106.604, 615.716 107.440 M 91 295.943 C 91 298.158, 122.337 344.074, 145.298 375.500 C 178.180 420.506, 226.817 478.984, 232.566 480.427 C 233.952 480.775, 239.903 480.542, 245.792 479.910 C 251.682 479.277, 259.852 478.801, 263.950 478.852 C 284.823 479.109, 299.121 471.243, 316.591 449.889 C 322.971 442.090, 325.711 441.217, 327.225 446.500 C 330.501 457.933, 316.167 509.324, 305.330 525 C 303.619 527.475, 298.340 533.919, 293.599 539.321 C 288.857 544.722, 284.325 550.405, 283.526 551.949 C 282.223 554.470, 282.250 554.907, 283.787 556.223 C 290.621 562.073, 332.626 568.251, 353.947 566.541 C 364.339 565.708, 380.331 561.649, 397.500 555.489 C 404.650 552.923, 411.305 550.581, 412.289 550.285 C 413.914 549.796, 413.857 550.334, 411.673 556.136 C 404.249 575.859, 391 593.523, 380 598.363 C 378.625 598.968, 374.932 601.573, 371.793 604.152 C 368.655 606.731, 359.441 613.469, 351.319 619.126 C 334.164 631.073, 329 635.480, 329 638.173 C 329 641.493, 336.104 643.703, 352.500 645.484 C 370.910 647.485, 384.123 650.267, 393.994 654.222 C 405.661 658.897, 411.335 660.793, 427.614 665.455 C 444.689 670.346, 447 671.344, 447 673.829 C 447 676.934, 440.634 686.317, 436.282 689.625 C 426.246 697.257, 414.842 699.436, 377 700.955 C 348.732 702.090, 337.129 703.577, 331.643 706.770 C 329.059 708.273, 328.447 709.317, 328.201 712.635 C 327.942 716.116, 328.542 717.523, 332.574 722.886 C 335.144 726.305, 342.919 734.142, 349.851 740.301 C 376.273 763.776, 382.486 770.503, 389.354 783.070 C 393.740 791.095, 396.697 798.601, 398.474 806.221 L 399.850 812.116 395.524 808.129 C 388.391 801.554, 378.846 797.709, 360.500 794.021 C 346.970 791.301, 338.895 787.143, 333.274 780 C 320.900 764.276, 320.011 763.768, 308.701 765.962 C 292.209 769.163, 283.074 778.028, 283.022 790.884 C 282.983 800.543, 284.511 803.520, 292.658 809.652 C 311.404 823.760, 328.840 843.374, 337.415 860 C 342.819 870.477, 343.657 873.405, 345.566 888.484 C 350.765 929.536, 368.621 965.791, 399.377 997.740 C 408.878 1007.610, 409.139 1008, 406.255 1008 C 404.606 1008, 399.036 1006.919, 393.878 1005.597 C 360.875 997.142, 331.805 971.731, 305.972 928.757 C 301.595 921.474, 300.360 920.211, 293.584 916.084 C 266.627 899.665, 246.336 875.123, 233.596 843.529 C 226.815 826.713, 221.948 806.247, 220.508 788.500 C 219.935 781.436, 220.391 777.867, 224.398 758 C 230.091 729.776, 233.991 703.012, 233.996 692.120 C 234.010 663.382, 209.781 597.446, 184.482 557.375 C 179.665 549.744, 166.718 529.100, 155.713 511.500 C 144.708 493.900, 135.107 478.629, 134.378 477.565 C 133.129 475.742, 132.964 475.841, 131.521 479.295 C 127.764 488.287, 122.298 514.215, 118.605 540.559 C 112.451 584.460, 110.523 614.355, 110.547 665.500 C 110.575 725.387, 114.068 761.944, 123.588 802 C 132.439 839.237, 155.538 897.426, 176.980 936.500 C 198.515 975.744, 218.907 1004.452, 249.464 1038.543 C 270.946 1062.512, 299.627 1089.420, 313.529 1098.651 L 319.018 1102.295 323.118 1100.447 C 328.906 1097.837, 330.336 1095.223, 329.791 1088.243 C 329.194 1080.578, 324.545 1071.094, 312.660 1053.292 C 302.896 1038.665, 299.256 1030.956, 298.298 1022.871 C 297.568 1016.703, 299.528 1008.952, 303.046 1004.095 L 305.902 1000.153 316.201 1010.329 C 337.133 1031.010, 421.055 1097.904, 434 1104.226 C 439.963 1107.138, 457.965 1107.796, 472.911 1105.648 C 486.286 1103.726, 493.195 1100.398, 497.681 1093.718 C 502.413 1086.671, 503.445 1080.103, 502.009 1066.171 C 499.230 1039.217, 495.641 1034.552, 452.500 1001.821 C 423.136 979.542, 409.965 965.745, 402.297 949.230 C 399.219 942.602, 396.541 929, 398.314 929 C 398.646 929, 403.052 932.317, 408.105 936.372 C 430.875 954.643, 464.934 972.146, 497 982.055 C 504.909 984.499, 509.597 986.702, 516 990.983 C 545.047 1010.405, 552.493 1010.529, 560.800 991.725 C 563.339 985.979, 566.579 974.317, 567.490 967.651 C 568.452 960.608, 566.550 953.926, 562.454 949.955 C 560.579 948.138, 558.322 944.473, 557.437 941.812 C 556.403 938.698, 554.667 936.085, 552.570 934.485 C 545.679 929.229, 530.173 925.393, 500.224 921.534 C 478.442 918.728, 465.941 915.963, 453.939 911.299 C 437.672 904.977, 420.942 892.735, 410.494 879.509 C 405.299 872.931, 398.116 860.410, 396.510 855.129 C 395.812 852.835, 395.939 852.862, 400.471 855.980 C 423.598 871.892, 460.471 877.412, 506.838 871.904 C 520.442 870.288, 528.264 869.910, 540.992 870.252 C 559.105 870.740, 565.624 872.130, 570.995 876.649 C 572.694 878.079, 574.240 879.080, 574.430 878.874 C 575.763 877.431, 579.099 859.855, 579.117 854.184 C 579.165 839.086, 576.275 835.066, 561 828.975 C 528.217 815.902, 520.200 814.422, 501.416 817.973 C 484.774 821.120, 466.158 820.580, 454.482 816.613 C 439.729 811.600, 426.607 800.300, 420.457 787.312 C 419.106 784.458, 418 781.731, 418 781.251 C 418 780.770, 424.413 781.808, 432.250 783.557 C 449.068 787.309, 466.666 790, 474.393 790 C 479.500 790, 480.364 789.640, 485.711 785.280 C 493.694 778.772, 501.058 774.489, 508.875 771.808 C 518.712 768.434, 533.631 768.599, 549.213 772.253 C 564.094 775.743, 566.958 775.748, 571.066 772.291 C 578.574 765.974, 579.984 754.268, 575.370 736.581 C 573.923 731.037, 572.293 725.938, 571.747 725.250 C 570 723.048, 561.741 723.901, 548.446 727.656 C 530.404 732.751, 525.012 732.693, 514.733 727.291 C 500.909 720.027, 483.323 716.534, 454.734 715.374 L 437.691 714.682 444.596 711.188 C 470.389 698.136, 499.179 686.289, 514 682.629 C 522.143 680.619, 553.560 675, 556.660 675 C 557.749 675, 556.111 670.412, 547.201 648.500 L 538.254 626.500 530.377 626.604 C 524.002 626.688, 521.070 627.299, 515 629.808 C 503.160 634.702, 499.237 635.345, 485.165 634.697 C 467.798 633.897, 446.439 629.222, 424.250 621.364 C 420.263 619.952, 417.025 618.505, 417.055 618.149 C 417.085 617.792, 424.935 612.567, 434.500 606.538 C 455.812 593.104, 473.840 580.377, 484.681 571.114 C 489.180 567.269, 494.243 563.409, 495.931 562.536 C 498.022 561.454, 499 560.207, 499 558.622 C 499 555.458, 489.066 535.442, 482.484 525.344 C 479.533 520.816, 475.237 515.287, 472.938 513.056 C 467.729 508, 465.048 507.863, 452.909 512.031 L 444.081 515.062 437.290 513.490 C 433.556 512.625, 425.550 509.938, 419.500 507.519 C 405.810 502.045, 399.907 500.691, 393.502 501.556 C 386.372 502.519, 374.970 506.874, 362.415 513.429 C 349.839 519.996, 345.730 520.514, 345.170 515.605 C 344.482 509.581, 351.479 496.050, 368.492 470.500 C 374.719 461.150, 382.997 449.225, 386.889 444 L 393.965 434.500 386.007 426.829 C 365.045 406.625, 328.636 381.365, 299.123 366.550 C 294.290 364.124, 290.966 363.043, 289.486 363.414 C 284.607 364.639, 264.083 389.379, 241.091 421.750 C 237.087 427.387, 233.379 432, 232.849 432 C 230.990 432, 228.103 423.377, 226.986 414.486 C 226.212 408.329, 226.068 394.007, 226.529 369 C 227.080 339.078, 226.957 332.205, 225.850 330.866 C 223.258 327.727, 186.195 315.230, 157 307.650 C 138.724 302.904, 112.771 297.600, 102.500 296.512 C 99.200 296.162, 95.263 295.643, 93.750 295.358 C 92.101 295.048, 91 295.282, 91 295.943 M 1899 297.591 C 1873.949 300.793, 1839.055 309.083, 1808.065 319.195 C 1782.052 327.683, 1774.195 330.809, 1773.519 332.942 C 1773.204 333.932, 1773.071 353.363, 1773.223 376.121 C 1773.472 413.314, 1773.319 418.158, 1771.712 424 C 1770.729 427.575, 1769.129 431.300, 1768.157 432.277 C 1766.466 433.978, 1766.179 433.743, 1761.445 426.781 C 1751.878 412.708, 1727.114 380.414, 1720.011 372.748 C 1716.061 368.484, 1711.751 364.725, 1710.434 364.394 C 1705.404 363.132, 1663.909 387.818, 1639 406.892 C 1629.848 413.900, 1611.904 429.248, 1608.271 433.175 L 1606.042 435.585 1615.139 448.042 C 1638.218 479.646, 1655 508.224, 1655 515.923 C 1655 522.453, 1652.955 522.221, 1635.158 513.673 C 1616.293 504.613, 1611.044 502.866, 1602.804 502.904 C 1595.547 502.938, 1594.487 503.223, 1579 509.316 C 1572.675 511.804, 1564.800 514.389, 1561.500 515.060 C 1555.775 516.224, 1555.083 516.136, 1546.381 513.140 C 1541.366 511.413, 1536.068 510, 1534.609 510 C 1530.982 510, 1524.175 516.462, 1517.850 525.908 C 1511.295 535.697, 1500.763 557.333, 1501.179 560.157 C 1501.364 561.414, 1502.974 563.161, 1504.975 564.276 C 1506.887 565.340, 1510.783 568.342, 1513.633 570.947 C 1523.277 579.761, 1552.577 600.275, 1577.024 615.329 C 1580.444 617.435, 1582.850 619.529, 1582.371 619.982 C 1581.121 621.165, 1561.208 627.564, 1549.728 630.471 C 1524.925 636.753, 1503.534 638.059, 1492.488 633.966 C 1477.240 628.316, 1475.178 627.767, 1468.698 627.637 L 1461.895 627.500 1453.394 648.500 C 1442.680 674.966, 1442.667 675.001, 1443.275 675.608 C 1443.554 675.887, 1452.493 677.614, 1463.141 679.445 C 1487.544 683.644, 1492.277 684.895, 1509.500 691.701 C 1522.476 696.829, 1558.456 713.325, 1560.318 715 C 1560.768 715.405, 1555.143 716.040, 1547.818 716.413 C 1516.030 718.029, 1500.311 721.033, 1486 728.227 C 1478.115 732.191, 1476.957 732.491, 1470 732.375 C 1464.665 732.286, 1459.469 731.319, 1452 729.024 C 1440.950 725.628, 1431.399 724.281, 1429.176 725.803 C 1426.954 727.324, 1422.874 742.974, 1422.282 752.244 C 1421.643 762.248, 1423.177 767.837, 1427.973 772.971 C 1430.373 775.541, 1431.541 776, 1435.669 776 C 1438.346 776, 1445.417 774.897, 1451.382 773.549 C 1466.008 770.245, 1474.160 769.562, 1482 770.987 C 1494.785 773.311, 1503.821 777.742, 1514.311 786.831 C 1519.075 790.959, 1519.198 791, 1526.961 791 C 1535.365 791, 1551.472 788.522, 1569.822 784.407 C 1576.074 783.004, 1581.439 782.105, 1581.742 782.409 C 1582.046 782.712, 1580.801 785.993, 1578.977 789.699 C 1572.147 803.572, 1556.873 815.310, 1540 819.653 C 1530.581 822.077, 1510.567 821.823, 1497 819.108 C 1491.225 817.952, 1484.862 817.005, 1482.859 817.003 C 1472.359 816.994, 1428.701 832.765, 1425.132 837.856 C 1420.329 844.706, 1419.596 856.271, 1423.035 870.922 C 1424.208 875.915, 1425.334 880, 1425.539 880 C 1425.744 880, 1427.584 878.865, 1429.628 877.478 C 1436.897 872.545, 1442.798 871.496, 1463 871.546 C 1475.202 871.576, 1486.266 872.231, 1495.500 873.468 C 1511.932 875.670, 1539.416 875.980, 1551.500 874.100 C 1570.548 871.137, 1587.047 865.546, 1597.571 858.489 C 1601.107 856.118, 1604 854.346, 1604 854.552 C 1604 855.972, 1599.556 865.711, 1596.886 870.142 C 1582.830 893.470, 1560.408 909.545, 1530.815 917.512 C 1525.692 918.891, 1512.500 921.166, 1501.500 922.568 C 1470.740 926.489, 1453.520 930.807, 1446.758 936.295 C 1445.800 937.072, 1444.051 939.912, 1442.870 942.604 C 1441.689 945.297, 1439.235 949.162, 1437.415 951.193 C 1433.272 955.820, 1431.612 961.735, 1432.488 968.749 C 1434.288 983.159, 1441.834 1001.666, 1447.313 1005.109 C 1453.824 1009.200, 1462.658 1006.234, 1482.377 993.338 C 1490.492 988.031, 1494.863 986.015, 1506.877 982.037 C 1539.473 971.246, 1570.699 954.902, 1592.387 937.283 C 1603.238 928.467, 1602.389 928.559, 1601.771 936.265 C 1600.295 954.656, 1583.554 975.798, 1550.925 1000.481 C 1517.845 1025.504, 1507.661 1034.796, 1503.367 1043.872 C 1500.025 1050.937, 1497.870 1062.912, 1497.675 1075.500 C 1497.543 1084.009, 1497.861 1086.244, 1499.809 1090.488 C 1501.068 1093.231, 1503.088 1096.538, 1504.299 1097.837 C 1510.517 1104.508, 1525.042 1108.023, 1546.500 1108.049 C 1559.066 1108.064, 1563.031 1107.359, 1568.487 1104.140 C 1575.446 1100.035, 1595.045 1085.212, 1623.214 1062.753 C 1658.112 1034.928, 1678.098 1017.892, 1687.162 1008.242 C 1693.259 1001.751, 1693.949 1001.291, 1695.296 1002.824 C 1698.100 1006.018, 1701.113 1013.160, 1701.681 1017.958 C 1702.851 1027.831, 1699.055 1037.358, 1686.617 1055.761 C 1667.932 1083.409, 1665.138 1097.394, 1677.413 1101.832 C 1680.780 1103.050, 1681.392 1102.959, 1685.282 1100.666 C 1693.220 1095.987, 1709.500 1081.610, 1729.573 1061.555 C 1771.241 1019.924, 1797.717 984.578, 1824.845 934.367 C 1849.369 888.975, 1873.131 825.102, 1880.413 785 C 1887.288 747.137, 1889.407 719.261, 1889.420 666.500 C 1889.433 615.167, 1887.542 585.780, 1881.377 541.500 C 1877.617 514.499, 1870.106 480.875, 1867.153 477.825 C 1866.794 477.454, 1860.453 486.904, 1853.063 498.825 C 1845.672 510.746, 1832.663 531.525, 1824.155 545 C 1807.501 571.373, 1801.030 582.986, 1792.950 601 C 1778.668 632.838, 1767.425 669.975, 1766.259 689.167 C 1765.484 701.921, 1768.738 725.971, 1776.182 762.500 L 1780.258 782.500 1779.075 793.500 C 1773.201 848.133, 1745.805 894.375, 1705.280 918.057 C 1699.507 921.430, 1698.469 922.600, 1692.649 932.291 C 1689.161 938.098, 1683.651 946.556, 1680.404 951.087 C 1672.394 962.263, 1655.533 979.703, 1645.088 987.615 C 1630.222 998.876, 1606.415 1009, 1594.800 1009 L 1590.976 1009 1598.519 1001.383 C 1630.166 969.427, 1649.295 931.116, 1654.417 889.431 C 1655.233 882.794, 1656.652 875.144, 1657.570 872.431 C 1664.057 853.264, 1681.245 831.708, 1705.216 812.678 C 1716.304 803.876, 1717.607 801.334, 1716.724 790.220 C 1716.108 782.463, 1712.879 777.150, 1706.200 772.906 C 1697.748 767.535, 1683.574 765.017, 1678.146 767.922 C 1676.931 768.572, 1673.530 772.343, 1670.587 776.302 C 1667.644 780.261, 1664.171 784.479, 1662.868 785.675 C 1658.654 789.546, 1650.426 792.958, 1640.351 795.014 C 1622.160 798.726, 1611.183 803.130, 1604.042 809.581 L 1600.156 813.092 1601.603 806.888 C 1604.603 794.030, 1613.442 777.420, 1623 766.683 C 1625.359 764.033, 1634.086 755.863, 1642.394 748.528 C 1665.679 727.968, 1672 720.710, 1672 714.535 C 1672 705.868, 1661.869 703.499, 1618.500 702.026 C 1586.810 700.949, 1576.662 699.092, 1565.896 692.400 C 1561.150 689.449, 1555.686 682.974, 1553.721 677.971 C 1552.194 674.083, 1552.213 673.908, 1554.321 672.564 C 1555.520 671.801, 1563.233 669.303, 1571.463 667.014 C 1579.692 664.726, 1591.167 661.043, 1596.963 658.832 C 1613.628 652.473, 1622.413 650.093, 1635.399 648.422 C 1666.013 644.481, 1671 643.172, 1671 639.081 C 1671 636.539, 1667.109 633.296, 1648.176 620.062 C 1639.284 613.845, 1630.094 607.077, 1627.754 605.022 C 1625.414 602.967, 1621.543 600.289, 1619.151 599.072 C 1610.179 594.505, 1600.731 583.487, 1593.639 569.319 C 1589.862 561.774, 1585.836 551.831, 1586.350 551.317 C 1586.516 551.151, 1592.218 553.073, 1599.020 555.588 C 1621.470 563.889, 1634.810 567.090, 1649.553 567.715 C 1674.625 568.778, 1709.547 563.340, 1716.176 557.340 C 1717.732 555.933, 1717.769 555.466, 1716.516 553.129 C 1715.741 551.683, 1711.092 545.886, 1706.186 540.246 C 1701.280 534.606, 1696.048 528.234, 1694.558 526.084 C 1684.357 511.364, 1670.048 460.906, 1672.619 448.720 C 1674.038 441.990, 1675.833 442.733, 1685.839 454.192 C 1703.349 474.244, 1711.929 478.672, 1736 480.077 C 1743.975 480.543, 1754.195 481.229, 1758.711 481.602 C 1765.493 482.162, 1767.367 481.990, 1769.471 480.611 C 1775.945 476.369, 1819.950 423.405, 1846.001 388.500 C 1872.470 353.034, 1909.613 299.140, 1908.865 297.284 C 1908.652 296.754, 1904.554 296.881, 1899 297.591 M 0.439 654 C 0.439 669.125, 0.578 675.313, 0.748 667.750 C 0.917 660.188, 0.917 647.813, 0.748 640.250 C 0.578 632.688, 0.439 638.875, 0.439 654 M 709.119 812.512 C 704.585 816.607, 703 821.528, 703 831.501 C 703 846.029, 709.238 874.714, 714.975 886.567 C 726.087 909.524, 747.438 927.469, 776.303 938.112 C 780.783 939.764, 784.596 941.263, 784.777 941.444 C 784.958 941.624, 782.889 944.084, 780.179 946.910 C 769.533 958.015, 766.163 969.066, 767.956 987 C 769.777 1005.213, 772.787 1011.977, 783.375 1021.642 C 800.638 1037.403, 818.625 1042.339, 839.415 1037.022 C 849.697 1034.392, 856.113 1030.747, 862.261 1024.042 C 867.395 1018.443, 873.790 1006.393, 875.950 998.250 C 876.570 995.913, 877.470 994, 877.950 994 C 882.357 994, 894.874 1020.813, 909.460 1061.500 C 912.023 1068.650, 914.930 1076.716, 915.920 1079.424 L 917.721 1084.349 918.326 1079.924 C 919.501 1071.340, 920.211 1007.600, 919.217 999.921 C 918.417 993.735, 917.055 989.963, 911.811 979.400 C 908.277 972.282, 903.421 963.542, 901.021 959.979 C 891.927 946.480, 874.322 930.688, 849.500 913.765 C 835.031 903.900, 825.566 898.696, 808 890.947 C 781.969 879.465, 758.637 867.388, 750.192 861.024 C 733.902 848.749, 724.320 834.560, 721.551 818.614 C 720.798 814.278, 719.578 810.348, 718.841 809.880 C 716.174 808.190, 712.931 809.068, 709.119 812.512 M 1280.784 811.750 C 1279.945 812.712, 1278.954 815.910, 1278.581 818.856 C 1276.520 835.139, 1265.528 851.041, 1247.083 864.427 C 1239.991 869.574, 1217.868 880.739, 1190.922 892.771 C 1171.750 901.332, 1161.104 907.373, 1145 918.828 C 1111.744 942.485, 1101.046 954.305, 1087.256 982.626 L 1080.500 996.500 1080.662 1035.471 C 1080.752 1056.905, 1081.137 1076.930, 1081.519 1079.971 L 1082.214 1085.500 1083.562 1082 C 1084.304 1080.075, 1087.584 1071.075, 1090.851 1062 C 1105.861 1020.305, 1117.145 996, 1121.492 996 C 1122.234 996, 1123.605 998.359, 1124.544 1001.250 C 1127.451 1010.205, 1133.952 1021.680, 1139.054 1026.863 C 1147.641 1035.586, 1160.741 1040.268, 1176.500 1040.246 C 1189.729 1040.228, 1201.063 1035.846, 1212.976 1026.145 C 1226.271 1015.319, 1230.074 1007.702, 1232.050 987.942 C 1233.819 970.250, 1230.820 960.320, 1220.267 948.922 C 1217.221 945.631, 1214.902 942.806, 1215.114 942.643 C 1215.326 942.481, 1218.425 941.324, 1222 940.073 C 1230.846 936.977, 1244.880 929.875, 1253.375 924.196 C 1266.932 915.133, 1281.673 897.553, 1286.937 884.170 C 1291.519 872.523, 1296.995 844.651, 1296.991 833 C 1296.988 822.737, 1295.552 818.238, 1290.847 813.750 C 1286.563 809.664, 1283.188 808.993, 1280.784 811.750 M 1485.691 1234.643 C 1485.311 1235.023, 1485 1236.383, 1485 1237.667 C 1485 1239.889, 1485.333 1240, 1492 1240 L 1499 1240 1499 1258.500 L 1499 1277 1501.977 1277 L 1504.955 1277 1505.227 1258.750 L 1505.500 1240.500 1512.312 1240.203 C 1519.063 1239.908, 1519.121 1239.882, 1518.812 1237.203 L 1518.500 1234.500 1502.441 1234.226 C 1493.608 1234.076, 1486.070 1234.263, 1485.691 1234.643 M 1523 1255.566 L 1523 1277.133 1525.750 1276.816 L 1528.500 1276.500 1529 1262.143 L 1529.500 1247.786 1533.875 1261.143 C 1536.282 1268.489, 1538.718 1275.085, 1539.290 1275.801 C 1539.861 1276.516, 1541.492 1276.966, 1542.914 1276.801 C 1545.290 1276.524, 1545.907 1275.320, 1550.500 1262 L 1555.500 1247.500 1555.777 1262.250 L 1556.053 1277 1559.047 1277 L 1562.040 1277 1561.770 1255.750 L 1561.500 1234.500 1557.500 1234.500 L 1553.500 1234.500 1548.037 1250.704 C 1545.032 1259.616, 1542.425 1266.759, 1542.244 1266.577 C 1542.062 1266.395, 1539.728 1259.779, 1537.057 1251.873 C 1534.386 1243.968, 1531.882 1236.713, 1531.493 1235.750 C 1530.990 1234.504, 1529.664 1234, 1526.893 1234 L 1523 1234 1523 1255.566" stroke="none" fill="#641c7b" fill-rule="evenodd"/><path d="M 615.716 107.440 C 591.709 114.316, 570.657 134.935, 558.781 163.200 C 554.761 172.766, 543.464 224.122, 541.996 239.500 C 540.530 254.857, 536.592 276.343, 533.949 283.407 C 532.818 286.430, 529.902 291.117, 527.470 293.822 C 518.249 304.078, 515.485 314.052, 513.616 343.825 L 512.443 362.500 506.971 356.960 C 497.060 346.925, 491.375 333.243, 490.366 317 C 489.586 304.444, 491.134 294.368, 496.107 279.632 C 500.035 267.991, 500.180 267.116, 499.698 258 C 499.350 251.415, 498.286 245.585, 496.231 239 C 491.557 224.022, 486.418 211.217, 482.600 205.031 C 478.359 198.160, 477.636 195.134, 474.934 172.931 C 472.015 148.946, 468.291 135.327, 463.931 132.688 C 462.727 131.959, 457.268 135.166, 440.431 146.493 C 428.369 154.608, 416.614 163.060, 414.309 165.274 C 402.292 176.819, 397.112 198.319, 398.354 231.500 C 399.130 252.230, 400.312 262.303, 403.573 275.978 C 405.375 283.535, 406.207 290.364, 406.558 300.478 C 407.081 315.539, 408.215 321.435, 412.952 333.719 C 416.262 342.301, 424.857 357.453, 431.167 365.827 C 433.374 368.756, 435.023 371.310, 434.830 371.503 C 434.638 371.695, 431.998 370.198, 428.964 368.176 C 425.929 366.154, 412.972 357.571, 400.171 349.102 L 376.895 333.705 368.600 322.602 C 350.196 297.967, 342.199 280.085, 331.040 238.612 L 328.379 228.723 317.939 237.945 C 308.445 246.333, 265 290.135, 265 291.321 C 265 291.596, 270.512 294.439, 277.250 297.639 C 334.574 324.865, 366.983 342.827, 398 364.564 C 421.932 381.335, 450.703 405.816, 475.493 430.500 C 532.198 486.963, 570.223 538.550, 603.012 603.500 C 615.503 628.242, 619.862 638.480, 631.324 670 C 656.673 739.704, 659.543 752.366, 668.156 832.500 C 670.944 858.437, 671.376 865.953, 671.340 888 C 671.267 933.451, 668.698 958.602, 659.931 999.686 C 653.828 1028.285, 650.890 1037.405, 641.630 1056.500 C 627.569 1085.498, 610.598 1110.035, 587.116 1135.320 C 582.102 1140.719, 578 1145.478, 578 1145.895 C 578 1146.915, 662.735 1212.496, 670.187 1217.245 C 683.388 1225.656, 694.153 1240.698, 701.385 1260.836 C 702.834 1264.871, 706.502 1277.852, 709.536 1289.684 C 727.424 1359.438, 738.615 1388.685, 752.622 1402.290 C 757.620 1407.145, 761.595 1408.338, 770.958 1407.796 C 784.553 1407.009, 797.971 1399.182, 815.056 1382.072 C 834.836 1362.263, 847.791 1342.500, 871.645 1295.746 C 897.432 1245.199, 911.421 1224.029, 917.492 1226.359 C 918.826 1226.870, 919 1243.005, 919 1366.098 L 919 1505.258 912.250 1504.656 C 896.621 1503.260, 857.333 1502.806, 849.330 1503.928 C 801.449 1510.641, 762.863 1545.558, 755.947 1588.430 C 754.075 1600.031, 755.194 1621.768, 758.469 1637.442 C 762.036 1654.511, 769.970 1682.257, 774.499 1693.500 C 779.511 1705.942, 786.741 1719.263, 796.483 1734 C 804.729 1746.476, 818.544 1764.429, 823.277 1768.819 L 825.777 1771.139 866.966 1770.416 C 913.953 1769.591, 909.508 1770.616, 912.137 1760 C 914.169 1751.798, 913.874 1727.598, 911.612 1717 C 907.477 1697.622, 899.636 1677.849, 891.647 1666.654 C 887.312 1660.579, 875.832 1649.009, 869 1643.828 C 867.075 1642.368, 858.075 1636.559, 849 1630.918 C 833.536 1621.306, 832.111 1620.635, 826.306 1620.218 C 822.177 1619.922, 818.532 1620.312, 815.377 1621.387 C 810.178 1623.159, 803.441 1623.523, 802.550 1622.081 C 801.795 1620.859, 806.596 1605.761, 809.679 1599.660 C 814.251 1590.614, 818.986 1586.617, 831.317 1581.397 C 840.406 1577.550, 843.904 1576.580, 850 1576.221 C 864.356 1575.374, 888.655 1581.821, 904.627 1590.715 C 914.843 1596.404, 922.926 1602.877, 943.723 1622.028 C 952.400 1630.018, 968.762 1644.931, 980.082 1655.168 L 1000.665 1673.781 1030.582 1646.761 C 1047.037 1631.899, 1064.236 1616.204, 1068.803 1611.883 C 1088.270 1593.461, 1106.895 1583.950, 1133.457 1578.868 C 1148.037 1576.079, 1153.723 1576.601, 1167.018 1581.950 C 1179.396 1586.930, 1182.920 1589.404, 1187.530 1596.347 C 1190.924 1601.459, 1196.142 1614.447, 1197.335 1620.750 L 1197.950 1624 1193.101 1624 C 1190.434 1624, 1186.338 1623.325, 1184 1622.500 C 1179.128 1620.781, 1172.311 1620.551, 1168.554 1621.979 C 1162.978 1624.099, 1132.064 1644.188, 1124.714 1650.468 C 1114.810 1658.930, 1105.622 1670.444, 1101.244 1679.879 C 1095.887 1691.425, 1091.238 1705.061, 1088.848 1716.244 C 1085.909 1729.990, 1085.631 1753.351, 1088.291 1762.991 C 1089.276 1766.561, 1090.401 1769.798, 1090.791 1770.184 C 1091.181 1770.570, 1110.175 1771.278, 1133 1771.757 L 1174.500 1772.629 1178.267 1768.565 C 1183.619 1762.791, 1200.860 1739.881, 1206.536 1731 C 1212.969 1720.935, 1222.166 1703.261, 1225.921 1693.749 C 1231.923 1678.542, 1240.430 1646.633, 1243.456 1627.973 C 1245.466 1615.579, 1245.447 1596.087, 1243.415 1586.208 C 1235.919 1549.762, 1205.309 1519.073, 1165.948 1508.539 C 1149.665 1504.181, 1140.086 1503.500, 1113.899 1504.837 C 1101.029 1505.494, 1088.362 1506.025, 1085.750 1506.016 L 1081 1506 1081 1366.969 C 1081 1215.763, 1080.648 1224.758, 1086.415 1228.536 C 1090.735 1231.367, 1101.058 1246.121, 1111.250 1264.032 C 1112.668 1266.524, 1119.972 1280.659, 1127.480 1295.443 C 1143.173 1326.341, 1147.692 1334.445, 1157.343 1349 C 1167.649 1364.542, 1176.795 1375.642, 1188.374 1386.662 C 1209.553 1406.817, 1229.046 1414.119, 1242.860 1407.071 C 1257.298 1399.706, 1271.253 1365.708, 1290.505 1291 C 1293.978 1277.525, 1298.210 1262.890, 1299.910 1258.479 C 1306.397 1241.643, 1318.001 1225.998, 1329.293 1218.863 C 1334.420 1215.624, 1416.692 1152.495, 1420.407 1148.950 C 1422.272 1147.171, 1422.126 1146.923, 1413.871 1137.815 C 1388.961 1110.334, 1373.951 1089.040, 1360.554 1062.180 C 1348.860 1038.735, 1346.141 1030.393, 1339.003 996.068 C 1331.126 958.183, 1328.620 931.914, 1328.694 888 C 1328.732 865.684, 1329.191 858.317, 1332.370 829 C 1339.458 763.635, 1341.984 750.216, 1354.199 713 C 1361.062 692.089, 1375.989 650.791, 1381.307 638 C 1401.703 588.937, 1439.162 527.841, 1474.500 486 C 1509.813 444.188, 1553.270 402.245, 1589.500 375.004 C 1619.859 352.177, 1643.457 338.281, 1697.173 311.600 L 1735.845 292.390 1710.673 267.244 C 1687.546 244.142, 1673.480 231, 1671.879 231 C 1671.529 231, 1670.536 233.813, 1669.672 237.250 C 1664.786 256.684, 1655.347 284.407, 1650.029 294.943 C 1645.627 303.662, 1637.029 316.855, 1629.195 326.909 C 1622.811 335.103, 1621.939 335.782, 1595.072 353.492 C 1561.975 375.309, 1564.063 374.029, 1566 371.305 C 1580.331 351.144, 1588.609 334.705, 1591.918 319.836 C 1592.448 317.451, 1593.117 309.186, 1593.403 301.470 C 1593.776 291.447, 1594.629 284.529, 1596.391 277.252 C 1600.191 261.558, 1601.347 249.481, 1601.391 225 C 1601.436 199.984, 1600.580 194.059, 1594.979 180.605 C 1592.608 174.908, 1590.368 171.533, 1586.151 167.305 C 1578.370 159.503, 1538.041 132.499, 1536.006 133.728 C 1531.641 136.365, 1528.008 150.365, 1524.535 177.929 C 1522.510 193.994, 1521.646 198.149, 1519.546 201.929 C 1508.661 221.516, 1500 248.267, 1500 262.297 C 1500 268.326, 1500.676 271.630, 1503.517 279.476 C 1514.649 310.230, 1510.904 339.709, 1493.618 357.403 L 1487.661 363.500 1486.403 344.500 C 1484.519 316.043, 1481.671 305.396, 1473.562 296.500 C 1468.286 290.712, 1465.532 284.764, 1463.143 274 C 1460.527 262.211, 1459.384 254.710, 1457.962 240 C 1456.836 228.345, 1446.496 179.478, 1442.857 168.611 C 1430.808 132.627, 1396.265 104.632, 1367.258 107.340 C 1355.260 108.461, 1341.253 116.958, 1333.981 127.528 L 1331.015 131.839 1335.932 155.170 C 1338.636 168.001, 1341.366 183.176, 1341.998 188.892 C 1343.984 206.854, 1350.442 225.015, 1358.181 234.403 C 1359.869 236.451, 1364.100 239.927, 1367.582 242.126 C 1382.410 251.491, 1394.548 270.245, 1411.509 310 C 1421.463 333.332, 1434.848 368.257, 1433.162 366.500 C 1432.634 365.950, 1428.041 359.875, 1422.955 353 C 1410.429 336.070, 1396.586 319.624, 1386.065 309.172 C 1381.262 304.401, 1377.145 300.048, 1376.916 299.499 C 1376.687 298.950, 1367.950 293.352, 1357.500 287.059 C 1307.740 257.096, 1293.497 245.976, 1270.835 219.402 C 1257.482 203.743, 1245.614 192.930, 1237.434 188.969 C 1232.874 186.761, 1226.002 186.422, 1220.899 188.153 C 1211.083 191.484, 1198.464 204.302, 1187.953 221.618 C 1181.514 232.225, 1170.844 254.277, 1171.773 255.055 C 1172.173 255.389, 1174.524 256.240, 1176.998 256.946 C 1188.361 260.187, 1206.818 271.479, 1221.997 284.477 C 1236.954 297.285, 1243.926 307.171, 1249.072 322.871 C 1253.036 334.965, 1255.544 339.365, 1261.822 345.237 C 1274.080 356.703, 1303.688 370.995, 1319.276 372.972 C 1328.080 374.088, 1338.375 377.990, 1350.973 384.985 C 1383.412 402.997, 1399.560 420.010, 1409.994 447.167 C 1412.075 452.584, 1416 466.860, 1416 469.013 C 1416 469.662, 1411.162 465.294, 1405.250 459.306 C 1384.233 438.019, 1362.560 423.604, 1340.439 416.198 C 1322.093 410.056, 1305.723 409.594, 1281 414.521 C 1270.637 416.586, 1265.712 417.093, 1259.805 416.704 C 1250.361 416.081, 1245.668 414.030, 1229.500 403.454 C 1188.288 376.498, 1148.765 356.903, 1124.605 351.446 C 1120.813 350.590, 1117.347 350.253, 1116.902 350.698 C 1115.942 351.658, 1075.937 463.270, 1076.390 463.724 C 1076.562 463.895, 1080.031 463.315, 1084.101 462.434 C 1094.375 460.211, 1114.450 459.492, 1126.657 460.912 C 1153.701 464.056, 1173.599 473.262, 1204.371 496.867 C 1218.820 507.950, 1225.028 513.969, 1236.595 528.106 C 1252.087 547.042, 1253.671 548.155, 1279 557.905 C 1286.425 560.763, 1293.400 563.469, 1294.500 563.918 C 1296.266 564.638, 1296.040 564.927, 1292.567 566.392 C 1281.324 571.134, 1273.157 572.419, 1254 572.460 C 1232.719 572.506, 1225.400 571.322, 1207 564.858 C 1176.099 554.003, 1165.719 551.690, 1147.500 551.603 C 1135.138 551.544, 1123.804 553.427, 1115.928 556.848 C 1113.836 557.757, 1101.409 567.360, 1088.312 578.188 C 1065.166 597.326, 1055.417 606.166, 1018.598 641.406 L 1000.934 658.311 998.217 655.828 C 996.723 654.462, 982.327 640.834, 966.226 625.545 C 931.137 592.224, 890.420 558.068, 882 554.892 C 872.235 551.208, 861.563 549.714, 849 550.273 C 832.185 551.021, 821.202 553.615, 793.500 563.384 C 775.029 569.897, 759.520 572.397, 742 571.684 C 733.544 571.340, 725.471 570.381, 720.394 569.117 C 710.535 566.663, 703.583 563.973, 704.685 563.040 C 705.133 562.659, 710.844 560.400, 717.375 558.019 C 723.906 555.637, 733.805 551.396, 739.374 548.594 C 748.948 543.777, 749.927 542.984, 757.376 534 C 779.279 507.584, 779.157 507.699, 806.500 487.606 C 829.792 470.490, 848.301 462.641, 871.965 459.845 C 883.585 458.473, 909.210 459.333, 917.492 461.373 C 920.787 462.185, 923.598 462.736, 923.737 462.596 C 923.877 462.457, 920.138 451.578, 915.429 438.421 C 900.931 397.913, 892.051 373.016, 887.726 360.750 C 883.002 347.352, 883.967 347.945, 871.894 351.027 C 847.574 357.236, 810.496 375.988, 770.098 402.509 C 755.289 412.232, 750.207 414.539, 741.421 415.530 C 735.674 416.178, 733.104 415.855, 709 411.454 C 675.534 405.344, 642.911 416.157, 609.023 444.589 C 604.099 448.721, 596.411 456.016, 591.940 460.800 L 583.811 469.500 584.519 465 C 585.726 457.326, 590.017 444.900, 594.707 435.500 C 604.668 415.533, 617.780 402.164, 641 388.300 C 658.674 377.747, 672.429 372, 680.012 372 C 688.607 372, 719.656 358.349, 732.185 349.061 C 742.149 341.675, 746.180 335.966, 750.425 323.226 C 755.480 308.055, 759.754 301.226, 771.534 289.500 C 786.899 274.205, 807.156 260.773, 822.113 255.964 C 830.059 253.409, 830.165 255.167, 820.937 236.629 C 808.912 212.475, 794.085 193.740, 782.857 188.513 C 775.126 184.914, 767.172 185.054, 760.500 188.905 C 751.975 193.826, 741.999 203.024, 731.092 216.021 C 707.991 243.547, 692.784 255.532, 643.011 285.444 C 632.292 291.886, 623.261 297.578, 622.942 298.094 C 622.623 298.610, 618.076 303.453, 612.836 308.856 C 600.997 321.067, 590.675 333.417, 577.197 351.500 C 571.457 359.200, 566.588 365.690, 566.375 365.922 C 565.054 367.366, 576.079 338.550, 585.500 315.935 C 604.901 269.362, 616.390 251.146, 633.135 240.413 C 646.676 231.734, 655.127 213.128, 658.417 184.752 C 659.281 177.295, 660.215 170.587, 660.491 169.846 C 660.767 169.106, 662.787 159.964, 664.980 149.530 L 668.968 130.561 666.381 126.828 C 661.891 120.350, 653.260 113.017, 646.259 109.733 C 640.363 106.968, 638.287 106.531, 630 106.316 C 624.206 106.166, 618.634 106.604, 615.716 107.440 M 91 295.943 C 91 298.158, 122.337 344.074, 145.298 375.500 C 178.180 420.506, 226.817 478.984, 232.566 480.427 C 233.952 480.775, 239.903 480.542, 245.792 479.910 C 251.682 479.277, 259.852 478.801, 263.950 478.852 C 284.823 479.109, 299.121 471.243, 316.591 449.889 C 322.971 442.090, 325.711 441.217, 327.225 446.500 C 330.501 457.933, 316.167 509.324, 305.330 525 C 303.619 527.475, 298.340 533.919, 293.599 539.321 C 288.857 544.722, 284.325 550.405, 283.526 551.949 C 282.223 554.470, 282.250 554.907, 283.787 556.223 C 290.621 562.073, 332.626 568.251, 353.947 566.541 C 364.339 565.708, 380.331 561.649, 397.500 555.489 C 404.650 552.923, 411.305 550.581, 412.289 550.285 C 413.914 549.796, 413.857 550.334, 411.673 556.136 C 404.249 575.859, 391 593.523, 380 598.363 C 378.625 598.968, 374.932 601.573, 371.793 604.152 C 368.655 606.731, 359.441 613.469, 351.319 619.126 C 334.164 631.073, 329 635.480, 329 638.173 C 329 641.493, 336.104 643.703, 352.500 645.484 C 370.910 647.485, 384.123 650.267, 393.994 654.222 C 405.661 658.897, 411.335 660.793, 427.614 665.455 C 444.689 670.346, 447 671.344, 447 673.829 C 447 676.934, 440.634 686.317, 436.282 689.625 C 426.246 697.257, 414.842 699.436, 377 700.955 C 348.732 702.090, 337.129 703.577, 331.643 706.770 C 329.059 708.273, 328.447 709.317, 328.201 712.635 C 327.942 716.116, 328.542 717.523, 332.574 722.886 C 335.144 726.305, 342.919 734.142, 349.851 740.301 C 376.273 763.776, 382.486 770.503, 389.354 783.070 C 393.740 791.095, 396.697 798.601, 398.474 806.221 L 399.850 812.116 395.524 808.129 C 388.391 801.554, 378.846 797.709, 360.500 794.021 C 346.970 791.301, 338.895 787.143, 333.274 780 C 320.900 764.276, 320.011 763.768, 308.701 765.962 C 292.209 769.163, 283.074 778.028, 283.022 790.884 C 282.983 800.543, 284.511 803.520, 292.658 809.652 C 311.404 823.760, 328.840 843.374, 337.415 860 C 342.819 870.477, 343.657 873.405, 345.566 888.484 C 350.765 929.536, 368.621 965.791, 399.377 997.740 C 408.878 1007.610, 409.139 1008, 406.255 1008 C 404.606 1008, 399.036 1006.919, 393.878 1005.597 C 360.875 997.142, 331.805 971.731, 305.972 928.757 C 301.595 921.474, 300.360 920.211, 293.584 916.084 C 266.627 899.665, 246.336 875.123, 233.596 843.529 C 226.815 826.713, 221.948 806.247, 220.508 788.500 C 219.935 781.436, 220.391 777.867, 224.398 758 C 230.091 729.776, 233.991 703.012, 233.996 692.120 C 234.010 663.382, 209.781 597.446, 184.482 557.375 C 179.665 549.744, 166.718 529.100, 155.713 511.500 C 144.708 493.900, 135.107 478.629, 134.378 477.565 C 133.129 475.742, 132.964 475.841, 131.521 479.295 C 127.764 488.287, 122.298 514.215, 118.605 540.559 C 112.451 584.460, 110.523 614.355, 110.547 665.500 C 110.575 725.387, 114.068 761.944, 123.588 802 C 132.439 839.237, 155.538 897.426, 176.980 936.500 C 198.515 975.744, 218.907 1004.452, 249.464 1038.543 C 270.946 1062.512, 299.627 1089.420, 313.529 1098.651 L 319.018 1102.295 323.118 1100.447 C 328.906 1097.837, 330.336 1095.223, 329.791 1088.243 C 329.194 1080.578, 324.545 1071.094, 312.660 1053.292 C 302.896 1038.665, 299.256 1030.956, 298.298 1022.871 C 297.568 1016.703, 299.528 1008.952, 303.046 1004.095 L 305.902 1000.153 316.201 1010.329 C 337.133 1031.010, 421.055 1097.904, 434 1104.226 C 439.963 1107.138, 457.965 1107.796, 472.911 1105.648 C 486.286 1103.726, 493.195 1100.398, 497.681 1093.718 C 502.413 1086.671, 503.445 1080.103, 502.009 1066.171 C 499.230 1039.217, 495.641 1034.552, 452.500 1001.821 C 423.136 979.542, 409.965 965.745, 402.297 949.230 C 399.219 942.602, 396.541 929, 398.314 929 C 398.646 929, 403.052 932.317, 408.105 936.372 C 430.875 954.643, 464.934 972.146, 497 982.055 C 504.909 984.499, 509.597 986.702, 516 990.983 C 545.047 1010.405, 552.493 1010.529, 560.800 991.725 C 563.339 985.979, 566.579 974.317, 567.490 967.651 C 568.452 960.608, 566.550 953.926, 562.454 949.955 C 560.579 948.138, 558.322 944.473, 557.437 941.812 C 556.403 938.698, 554.667 936.085, 552.570 934.485 C 545.679 929.229, 530.173 925.393, 500.224 921.534 C 478.442 918.728, 465.941 915.963, 453.939 911.299 C 437.672 904.977, 420.942 892.735, 410.494 879.509 C 405.299 872.931, 398.116 860.410, 396.510 855.129 C 395.812 852.835, 395.939 852.862, 400.471 855.980 C 423.598 871.892, 460.471 877.412, 506.838 871.904 C 520.442 870.288, 528.264 869.910, 540.992 870.252 C 559.105 870.740, 565.624 872.130, 570.995 876.649 C 572.694 878.079, 574.240 879.080, 574.430 878.874 C 575.763 877.431, 579.099 859.855, 579.117 854.184 C 579.165 839.086, 576.275 835.066, 561 828.975 C 528.217 815.902, 520.200 814.422, 501.416 817.973 C 484.774 821.120, 466.158 820.580, 454.482 816.613 C 439.729 811.600, 426.607 800.300, 420.457 787.312 C 419.106 784.458, 418 781.731, 418 781.251 C 418 780.770, 424.413 781.808, 432.250 783.557 C 449.068 787.309, 466.666 790, 474.393 790 C 479.500 790, 480.364 789.640, 485.711 785.280 C 493.694 778.772, 501.058 774.489, 508.875 771.808 C 518.712 768.434, 533.631 768.599, 549.213 772.253 C 564.094 775.743, 566.958 775.748, 571.066 772.291 C 578.574 765.974, 579.984 754.268, 575.370 736.581 C 573.923 731.037, 572.293 725.938, 571.747 725.250 C 570 723.048, 561.741 723.901, 548.446 727.656 C 530.404 732.751, 525.012 732.693, 514.733 727.291 C 500.909 720.027, 483.323 716.534, 454.734 715.374 L 437.691 714.682 444.596 711.188 C 470.389 698.136, 499.179 686.289, 514 682.629 C 522.143 680.619, 553.560 675, 556.660 675 C 557.749 675, 556.111 670.412, 547.201 648.500 L 538.254 626.500 530.377 626.604 C 524.002 626.688, 521.070 627.299, 515 629.808 C 503.160 634.702, 499.237 635.345, 485.165 634.697 C 467.798 633.897, 446.439 629.222, 424.250 621.364 C 420.263 619.952, 417.025 618.505, 417.055 618.149 C 417.085 617.792, 424.935 612.567, 434.500 606.538 C 455.812 593.104, 473.840 580.377, 484.681 571.114 C 489.180 567.269, 494.243 563.409, 495.931 562.536 C 498.022 561.454, 499 560.207, 499 558.622 C 499 555.458, 489.066 535.442, 482.484 525.344 C 479.533 520.816, 475.237 515.287, 472.938 513.056 C 467.729 508, 465.048 507.863, 452.909 512.031 L 444.081 515.062 437.290 513.490 C 433.556 512.625, 425.550 509.938, 419.500 507.519 C 405.810 502.045, 399.907 500.691, 393.502 501.556 C 386.372 502.519, 374.970 506.874, 362.415 513.429 C 349.839 519.996, 345.730 520.514, 345.170 515.605 C 344.482 509.581, 351.479 496.050, 368.492 470.500 C 374.719 461.150, 382.997 449.225, 386.889 444 L 393.965 434.500 386.007 426.829 C 365.045 406.625, 328.636 381.365, 299.123 366.550 C 294.290 364.124, 290.966 363.043, 289.486 363.414 C 284.607 364.639, 264.083 389.379, 241.091 421.750 C 237.087 427.387, 233.379 432, 232.849 432 C 230.990 432, 228.103 423.377, 226.986 414.486 C 226.212 408.329, 226.068 394.007, 226.529 369 C 227.080 339.078, 226.957 332.205, 225.850 330.866 C 223.258 327.727, 186.195 315.230, 157 307.650 C 138.724 302.904, 112.771 297.600, 102.500 296.512 C 99.200 296.162, 95.263 295.643, 93.750 295.358 C 92.101 295.048, 91 295.282, 91 295.943 M 1899 297.591 C 1873.949 300.793, 1839.055 309.083, 1808.065 319.195 C 1782.052 327.683, 1774.195 330.809, 1773.519 332.942 C 1773.204 333.932, 1773.071 353.363, 1773.223 376.121 C 1773.472 413.314, 1773.319 418.158, 1771.712 424 C 1770.729 427.575, 1769.129 431.300, 1768.157 432.277 C 1766.466 433.978, 1766.179 433.743, 1761.445 426.781 C 1751.878 412.708, 1727.114 380.414, 1720.011 372.748 C 1716.061 368.484, 1711.751 364.725, 1710.434 364.394 C 1705.404 363.132, 1663.909 387.818, 1639 406.892 C 1629.848 413.900, 1611.904 429.248, 1608.271 433.175 L 1606.042 435.585 1615.139 448.042 C 1638.218 479.646, 1655 508.224, 1655 515.923 C 1655 522.453, 1652.955 522.221, 1635.158 513.673 C 1616.293 504.613, 1611.044 502.866, 1602.804 502.904 C 1595.547 502.938, 1594.487 503.223, 1579 509.316 C 1572.675 511.804, 1564.800 514.389, 1561.500 515.060 C 1555.775 516.224, 1555.083 516.136, 1546.381 513.140 C 1541.366 511.413, 1536.068 510, 1534.609 510 C 1530.982 510, 1524.175 516.462, 1517.850 525.908 C 1511.295 535.697, 1500.763 557.333, 1501.179 560.157 C 1501.364 561.414, 1502.974 563.161, 1504.975 564.276 C 1506.887 565.340, 1510.783 568.342, 1513.633 570.947 C 1523.277 579.761, 1552.577 600.275, 1577.024 615.329 C 1580.444 617.435, 1582.850 619.529, 1582.371 619.982 C 1581.121 621.165, 1561.208 627.564, 1549.728 630.471 C 1524.925 636.753, 1503.534 638.059, 1492.488 633.966 C 1477.240 628.316, 1475.178 627.767, 1468.698 627.637 L 1461.895 627.500 1453.394 648.500 C 1442.680 674.966, 1442.667 675.001, 1443.275 675.608 C 1443.554 675.887, 1452.493 677.614, 1463.141 679.445 C 1487.544 683.644, 1492.277 684.895, 1509.500 691.701 C 1522.476 696.829, 1558.456 713.325, 1560.318 715 C 1560.768 715.405, 1555.143 716.040, 1547.818 716.413 C 1516.030 718.029, 1500.311 721.033, 1486 728.227 C 1478.115 732.191, 1476.957 732.491, 1470 732.375 C 1464.665 732.286, 1459.469 731.319, 1452 729.024 C 1440.950 725.628, 1431.399 724.281, 1429.176 725.803 C 1426.954 727.324, 1422.874 742.974, 1422.282 752.244 C 1421.643 762.248, 1423.177 767.837, 1427.973 772.971 C 1430.373 775.541, 1431.541 776, 1435.669 776 C 1438.346 776, 1445.417 774.897, 1451.382 773.549 C 1466.008 770.245, 1474.160 769.562, 1482 770.987 C 1494.785 773.311, 1503.821 777.742, 1514.311 786.831 C 1519.075 790.959, 1519.198 791, 1526.961 791 C 1535.365 791, 1551.472 788.522, 1569.822 784.407 C 1576.074 783.004, 1581.439 782.105, 1581.742 782.409 C 1582.046 782.712, 1580.801 785.993, 1578.977 789.699 C 1572.147 803.572, 1556.873 815.310, 1540 819.653 C 1530.581 822.077, 1510.567 821.823, 1497 819.108 C 1491.225 817.952, 1484.862 817.005, 1482.859 817.003 C 1472.359 816.994, 1428.701 832.765, 1425.132 837.856 C 1420.329 844.706, 1419.596 856.271, 1423.035 870.922 C 1424.208 875.915, 1425.334 880, 1425.539 880 C 1425.744 880, 1427.584 878.865, 1429.628 877.478 C 1436.897 872.545, 1442.798 871.496, 1463 871.546 C 1475.202 871.576, 1486.266 872.231, 1495.500 873.468 C 1511.932 875.670, 1539.416 875.980, 1551.500 874.100 C 1570.548 871.137, 1587.047 865.546, 1597.571 858.489 C 1601.107 856.118, 1604 854.346, 1604 854.552 C 1604 855.972, 1599.556 865.711, 1596.886 870.142 C 1582.830 893.470, 1560.408 909.545, 1530.815 917.512 C 1525.692 918.891, 1512.500 921.166, 1501.500 922.568 C 1470.740 926.489, 1453.520 930.807, 1446.758 936.295 C 1445.800 937.072, 1444.051 939.912, 1442.870 942.604 C 1441.689 945.297, 1439.235 949.162, 1437.415 951.193 C 1433.272 955.820, 1431.612 961.735, 1432.488 968.749 C 1434.288 983.159, 1441.834 1001.666, 1447.313 1005.109 C 1453.824 1009.200, 1462.658 1006.234, 1482.377 993.338 C 1490.492 988.031, 1494.863 986.015, 1506.877 982.037 C 1539.473 971.246, 1570.699 954.902, 1592.387 937.283 C 1603.238 928.467, 1602.389 928.559, 1601.771 936.265 C 1600.295 954.656, 1583.554 975.798, 1550.925 1000.481 C 1517.845 1025.504, 1507.661 1034.796, 1503.367 1043.872 C 1500.025 1050.937, 1497.870 1062.912, 1497.675 1075.500 C 1497.543 1084.009, 1497.861 1086.244, 1499.809 1090.488 C 1501.068 1093.231, 1503.088 1096.538, 1504.299 1097.837 C 1510.517 1104.508, 1525.042 1108.023, 1546.500 1108.049 C 1559.066 1108.064, 1563.031 1107.359, 1568.487 1104.140 C 1575.446 1100.035, 1595.045 1085.212, 1623.214 1062.753 C 1658.112 1034.928, 1678.098 1017.892, 1687.162 1008.242 C 1693.259 1001.751, 1693.949 1001.291, 1695.296 1002.824 C 1698.100 1006.018, 1701.113 1013.160, 1701.681 1017.958 C 1702.851 1027.831, 1699.055 1037.358, 1686.617 1055.761 C 1667.932 1083.409, 1665.138 1097.394, 1677.413 1101.832 C 1680.780 1103.050, 1681.392 1102.959, 1685.282 1100.666 C 1693.220 1095.987, 1709.500 1081.610, 1729.573 1061.555 C 1771.241 1019.924, 1797.717 984.578, 1824.845 934.367 C 1849.369 888.975, 1873.131 825.102, 1880.413 785 C 1887.288 747.137, 1889.407 719.261, 1889.420 666.500 C 1889.433 615.167, 1887.542 585.780, 1881.377 541.500 C 1877.617 514.499, 1870.106 480.875, 1867.153 477.825 C 1866.794 477.454, 1860.453 486.904, 1853.063 498.825 C 1845.672 510.746, 1832.663 531.525, 1824.155 545 C 1807.501 571.373, 1801.030 582.986, 1792.950 601 C 1778.668 632.838, 1767.425 669.975, 1766.259 689.167 C 1765.484 701.921, 1768.738 725.971, 1776.182 762.500 L 1780.258 782.500 1779.075 793.500 C 1773.201 848.133, 1745.805 894.375, 1705.280 918.057 C 1699.507 921.430, 1698.469 922.600, 1692.649 932.291 C 1689.161 938.098, 1683.651 946.556, 1680.404 951.087 C 1672.394 962.263, 1655.533 979.703, 1645.088 987.615 C 1630.222 998.876, 1606.415 1009, 1594.800 1009 L 1590.976 1009 1598.519 1001.383 C 1630.166 969.427, 1649.295 931.116, 1654.417 889.431 C 1655.233 882.794, 1656.652 875.144, 1657.570 872.431 C 1664.057 853.264, 1681.245 831.708, 1705.216 812.678 C 1716.304 803.876, 1717.607 801.334, 1716.724 790.220 C 1716.108 782.463, 1712.879 777.150, 1706.200 772.906 C 1697.748 767.535, 1683.574 765.017, 1678.146 767.922 C 1676.931 768.572, 1673.530 772.343, 1670.587 776.302 C 1667.644 780.261, 1664.171 784.479, 1662.868 785.675 C 1658.654 789.546, 1650.426 792.958, 1640.351 795.014 C 1622.160 798.726, 1611.183 803.130, 1604.042 809.581 L 1600.156 813.092 1601.603 806.888 C 1604.603 794.030, 1613.442 777.420, 1623 766.683 C 1625.359 764.033, 1634.086 755.863, 1642.394 748.528 C 1665.679 727.968, 1672 720.710, 1672 714.535 C 1672 705.868, 1661.869 703.499, 1618.500 702.026 C 1586.810 700.949, 1576.662 699.092, 1565.896 692.400 C 1561.150 689.449, 1555.686 682.974, 1553.721 677.971 C 1552.194 674.083, 1552.213 673.908, 1554.321 672.564 C 1555.520 671.801, 1563.233 669.303, 1571.463 667.014 C 1579.692 664.726, 1591.167 661.043, 1596.963 658.832 C 1613.628 652.473, 1622.413 650.093, 1635.399 648.422 C 1666.013 644.481, 1671 643.172, 1671 639.081 C 1671 636.539, 1667.109 633.296, 1648.176 620.062 C 1639.284 613.845, 1630.094 607.077, 1627.754 605.022 C 1625.414 602.967, 1621.543 600.289, 1619.151 599.072 C 1610.179 594.505, 1600.731 583.487, 1593.639 569.319 C 1589.862 561.774, 1585.836 551.831, 1586.350 551.317 C 1586.516 551.151, 1592.218 553.073, 1599.020 555.588 C 1621.470 563.889, 1634.810 567.090, 1649.553 567.715 C 1674.625 568.778, 1709.547 563.340, 1716.176 557.340 C 1717.732 555.933, 1717.769 555.466, 1716.516 553.129 C 1715.741 551.683, 1711.092 545.886, 1706.186 540.246 C 1701.280 534.606, 1696.048 528.234, 1694.558 526.084 C 1684.357 511.364, 1670.048 460.906, 1672.619 448.720 C 1674.038 441.990, 1675.833 442.733, 1685.839 454.192 C 1703.349 474.244, 1711.929 478.672, 1736 480.077 C 1743.975 480.543, 1754.195 481.229, 1758.711 481.602 C 1765.493 482.162, 1767.367 481.990, 1769.471 480.611 C 1775.945 476.369, 1819.950 423.405, 1846.001 388.500 C 1872.470 353.034, 1909.613 299.140, 1908.865 297.284 C 1908.652 296.754, 1904.554 296.881, 1899 297.591 M 709.119 812.512 C 704.585 816.607, 703 821.528, 703 831.501 C 703 846.029, 709.238 874.714, 714.975 886.567 C 726.087 909.524, 747.438 927.469, 776.303 938.112 C 780.783 939.764, 784.596 941.263, 784.777 941.444 C 784.958 941.624, 782.889 944.084, 780.179 946.910 C 769.533 958.015, 766.163 969.066, 767.956 987 C 769.777 1005.213, 772.787 1011.977, 783.375 1021.642 C 800.638 1037.403, 818.625 1042.339, 839.415 1037.022 C 849.697 1034.392, 856.113 1030.747, 862.261 1024.042 C 867.395 1018.443, 873.790 1006.393, 875.950 998.250 C 876.570 995.913, 877.470 994, 877.950 994 C 882.357 994, 894.874 1020.813, 909.460 1061.500 C 912.023 1068.650, 914.930 1076.716, 915.920 1079.424 L 917.721 1084.349 918.326 1079.924 C 919.501 1071.340, 920.211 1007.600, 919.217 999.921 C 918.417 993.735, 917.055 989.963, 911.811 979.400 C 908.277 972.282, 903.421 963.542, 901.021 959.979 C 891.927 946.480, 874.322 930.688, 849.500 913.765 C 835.031 903.900, 825.566 898.696, 808 890.947 C 781.969 879.465, 758.637 867.388, 750.192 861.024 C 733.902 848.749, 724.320 834.560, 721.551 818.614 C 720.798 814.278, 719.578 810.348, 718.841 809.880 C 716.174 808.190, 712.931 809.068, 709.119 812.512 M 1280.784 811.750 C 1279.945 812.712, 1278.954 815.910, 1278.581 818.856 C 1276.520 835.139, 1265.528 851.041, 1247.083 864.427 C 1239.991 869.574, 1217.868 880.739, 1190.922 892.771 C 1171.750 901.332, 1161.104 907.373, 1145 918.828 C 1111.744 942.485, 1101.046 954.305, 1087.256 982.626 L 1080.500 996.500 1080.662 1035.471 C 1080.752 1056.905, 1081.137 1076.930, 1081.519 1079.971 L 1082.214 1085.500 1083.562 1082 C 1084.304 1080.075, 1087.584 1071.075, 1090.851 1062 C 1105.861 1020.305, 1117.145 996, 1121.492 996 C 1122.234 996, 1123.605 998.359, 1124.544 1001.250 C 1127.451 1010.205, 1133.952 1021.680, 1139.054 1026.863 C 1147.641 1035.586, 1160.741 1040.268, 1176.500 1040.246 C 1189.729 1040.228, 1201.063 1035.846, 1212.976 1026.145 C 1226.271 1015.319, 1230.074 1007.702, 1232.050 987.942 C 1233.819 970.250, 1230.820 960.320, 1220.267 948.922 C 1217.221 945.631, 1214.902 942.806, 1215.114 942.643 C 1215.326 942.481, 1218.425 941.324, 1222 940.073 C 1230.846 936.977, 1244.880 929.875, 1253.375 924.196 C 1266.932 915.133, 1281.673 897.553, 1286.937 884.170 C 1291.519 872.523, 1296.995 844.651, 1296.991 833 C 1296.988 822.737, 1295.552 818.238, 1290.847 813.750 C 1286.563 809.664, 1283.188 808.993, 1280.784 811.750" stroke="none" fill="#fbb31c" fill-rule="evenodd"/></svg>