<svg xmlns="http://www.w3.org/2000/svg" viewBox="0 0 400 400"><g fill="none" stroke="#a26749" stroke-width="2"><path d="M257.62 132.96q1.12 3.01-.82.45c-2.43-3.2-4.39-6.22-7.89-8.33q-8.44-5.09-15.11-12.35c-4.85-5.29-9.15 3.06-10.59 6.81a.53.52 20.1 0 0 .32.68q7.09 2.48 10.01 8.99c1.55 3.46 4.56 5.59 7.96 6.26q10.54 2.1 14.41 12.3a.46.46 0 0 1-.76.48c-3.78-4.03-8.07-7.27-13.91-7.29-3.86-.02-5.84 2-9.7-.59q-6.57-4.4-14.72-7.55a1.07 1.06-69.5 0 0-1.39.64l-5.07 14.14a.3.3 0 0 0 .35.39c9.06-2.16 16.21 3.01 21.82 9.37 1.9 2.14 3.69 2.91 6.26 3.68a.56.56 0 0 1 0 1.07c-9.85 3.07-17.07-6.81-25.95.43q-5.94 4.84-11.98 10.95a1.07 1.07 0 0 1-1.53 0c-4.75-4.86-14.37-15.8-21.76-13.64-5.87 1.72-10.48 3.75-16.63 1.88a.52.51-41.1 0 1 .07-1c2.9-.48 4.87-1.51 6.87-3.95 5.31-6.49 12.93-10.95 21.17-8.99a.44.44 0 0 0 .51-.58l-4.99-13.69q-.45-1.22-1.67-.77-8.46 3.15-15.78 8.41-.43.31-.96.33c-1.64.05-2.77.01-4.52-.37-6.63-1.43-12.57 2.06-16.72 6.88a.5.49-14.1 0 1-.84-.5q3.9-10.04 14.24-12.18c3.49-.72 6.59-2.79 8.16-6.33q2.89-6.56 9.98-8.94a.54.53 69.2 0 0 .32-.73c-1.35-3.11-5.94-12.05-10.25-7.27q-2.41 2.67-4.96 5.19c-4.58 4.51-10.74 6.59-14.95 11.55q-1.92 2.27-3.72 4.68a.38.38 0 0 1-.66-.37q2.17-5.52 4.92-10.93c1.48-2.92 5.65-4.96 6.28-8.23.43-2.21 2.86-10.71.89-12.3-6.39-5.16-13.01 2.66-14.29 8.62q-1.38 6.45-2.36 13-.08.54-.42.96-3.21 4.05-2.42 9.29a.62.62 0 0 1-1.12.45q-2.14-2.95-2.28-6.27c-.11-2.66 1.8-5.54 1.31-8.43q-.32-1.88-1.89-5.37c-1.53-3.38-1.49-6.66-2.51-10.22a.39.39 0 0 0-.59-.21c-3.26 2.21-8.29 4.58-8.38 9.48-.15 7.84.26 15.69 4.25 21.84q.49.76-.32.36-11.26-5.59-13.14-18.17a.45.45 0 0 0-.76-.25l-7.96 7.96a.29.29 0 0 0 .09.47c35.77 14.6 57.24 50.09 53.89 88.67q-1.31 14.98-11.83 25.17a.53.53 0 0 0 .03.8q6.76 5.36 13.41 10.28c4.58 3.38 6.02 25.27 11.95 24.69 7.87-.76 14.95-17.47 18.52-23.74a.93.93 0 0 1 1.74.46v35.71q0 .63-.63.6c-3.57-.2-7.5-.65-10.64.16-17.88 4.65-9.64 26.05-1.93 34.94a1.36 1.34-20.4 0 0 1.05.47l9.55-.16q1.49-.03 1.59-1.51.95-13.78-11.67-18.58-.38-.15-.76.02l-1.48.66q-.85.37-.73-.55c1.21-9.35 11.69-5.8 16.3-1.94q4.98 4.15 9.78 8.75.41.4.83.01 4.46-4.17 9.03-8.2c5.06-4.46 14.47-7.67 17.05 1.24a.57.57 0 0 1-.66.71l-2.19-.47q-.42-.08-.81.08-12.41 5.12-11.12 18.87a1.27 1.27 0 0 0 1.25 1.15l9.83.09q.57 0 .95-.42c6.91-7.76 14.24-24.51 3.45-32.41-5.37-3.94-9.99-2.95-15.85-2.96q-.69-.01-.69-.69v-35.8a.82.82 0 0 1 1.53-.41c3.42 5.97 10.75 22.91 18 23.9 7.5 1.03 7.29-20.28 12.89-24.57q6.57-5.04 13.09-10.1a.57.56 48.7 0 0 .05-.85c-10.44-10.53-12.86-23.3-11.99-37.72q.61-10.2 1.23-12.9 10.17-44.47 52.78-63.28.66-.29.14-.79l-7.7-7.47a.61.61 0 0 0-1.02.35q-1.9 12.4-12.99 17.84-.84.4-.34-.38c3.8-6.04 3.61-11.66 4.25-19.1.59-6.84-2.69-8.08-7.52-11.44q-1.66-1.16-2.02.83c-.56 3.07-.41 5.72-1.87 8.61-1.71 3.39-2.62 6.46-1.35 10.3q1.71 5.17-1.6 9.97a.65.64-23.5 0 1-1.17-.46c.84-5.54-2.25-6.99-3.03-11.52-1.24-7.12-1.4-15.81-7.83-20.28-3.32-2.32-7.11-2.15-9.51 1.27q-.28.41-.19.89c.89 4.5 1.31 8.73 3.25 12.91q.21.46.63.73c4.67 3.06 7.41 10.71 9.16 15.38" vector-effect="non-scaling-stroke"/><path d="M112 155.13c.19-2.78 4.67-8.53 6.42-10.79a.63.63 0 0 0-.09-.86q-6.11-5.16-13.14-8.95-.76-.41-1.28.27l-6.37 8.3a.72.72 0 0 1-1.29-.43v-12.15q0-.41-.39-.55-8.1-3.05-16.64-4.47-1.39-.23-.62.95 7.99 12.35 17.74 23.38.34.39.86.4c4.76.08 9.05-.45 11.38-4.75a.56.56 0 0 1 1 .01c1.67 3.25-3.53 11.82-5.84 14.27q-.51.54.19.77 8.69 2.76 16.86-.98a.34.34 0 0 1 .46.44c-2.06 5.1-6.75 7.78-11.07 10.79a.61.61 0 0 0 .27 1.11q7.73.99 14.95 3.97.56.23.28.77c-2.42 4.53-11.01 2.5-15.33 3.95a1 1 0 0 0-.39 1.66c3.92 3.92 7.28 6.56 9.52 11.71a.31.31 0 0 1-.46.38c-3.63-2.49-6.96-1.41-9.72-5.3q-.3-.42-.8-.49c-3.04-.43-6.96 3.24-3.54 5.75 3.9 2.86 6.36 6.07 7.21 11.06q1.08 6.35 4.87 11.6c.8 1.11 2.35 2.36 3.25 3.82q.42.66-.34.46c-5.47-1.44-9.66-5.38-12.72-9.99q-1.17-1.78-2.91-3.09-7.52-5.69-8.82-15.07c-.86-6.21 2.61-11.48 1.05-17.9-2.29-9.44-7.55-16.84-12.49-24.95a.49.49 0 0 0-.89.16q-3.41 16.34-2.3 32.93c1.28 18.98 12.1 37.42 26.31 49.38 1.06.9 2.14 1.28 2.84-.27a1.6 1.57-48.2 0 0-.07-1.47c-.79-1.33-6.59-9.64-3.07-10.23a1.08 1.05 59.8 0 1 .86.24q7.74 6.76 15.21 12.05c3.65 2.59 11.08 1.87 10.14-4.45-1.01-6.81-10.72-9.67-14.23-17.35a.47.47 0 0 1 .72-.56c5.71 4.71 12.76 6.26 18.43 9.9a1.64 1.63-56.8 0 0 2.23-.47c2.66-3.95 2.02-9-3.33-9.98-7.7-1.42-13.62-1.53-17.98-9.17a.34.34 0 0 1 .46-.46c6.08 3.6 11.3 2.17 17.87 2.04q3.33-.07 5.14.67.4.16.59-.22c3.13-6.43-6.42-8.15-10.37-7.32q-6.91 1.44-10.76-4.55-.44-.69.37-.54l7.08 1.29q.63.12 1.1-.3 4.75-4.21 10.85-1.66.6.25.97-.3 2.17-3.18.01-6.49-.26-.4-.71-.27l-4.38 1.18q-.48.13-.94-.09-4.93-2.41-10.46-2.08a.38.38 0 0 1-.2-.71q6.81-3.69 14.52-4.76.56-.08.34-.6l-2.39-5.8q-.25-.61-.87-.38-7.54 2.79-14.92-.68a.21.21 0 0 1-.03-.36l10.31-7.29q.72-.51.25-1.25l-3.57-5.66q-.4-.62-1.11-.41l-3 .91q-.55.16-1.04-.12-5.9-3.46-11.08.89a.59.59 0 0 1-.96-.49M273.78 182.09q-2.96-.37-6.97.73c-2.21.6-2.46 1.92-5.18 1.08q-1.5-.47-2.64-.71-.96-.2-1.46.64-1.88 3.19.22 5.92.37.48.94.26 6.24-2.42 10.97 1.78.46.41 1.06.29l7.1-1.39q.49-.09.27.36c-2.35 4.91-5.79 5-11.06 4.56-4.11-.34-12.89 1.03-10.07 7.56q.23.54.77.32 3.38-1.41 5.03-1.06 7.34 1.56 14.56-.14c1.2-.28 2.17-1.23 3.36-1.73q.76-.32.38.42c-3.74 7.29-10.16 8.41-18.33 9.24-4.62.47-5.65 6.4-3.02 9.77a2.02 2.01-34.3 0 0 2.62.49c6.33-3.8 12.36-4.97 18.02-9.73a.38.38 0 0 1 .62.37c-1.11 4.94-7.04 9.14-10.93 11.93-2.91 2.09-5.61 9.7-.35 11.02 2.67.67 5.31.8 7.76-.95q8.02-5.74 15.24-12.57.34-.33.7-.01c2.7 2.48-2.24 8.53-3.64 11.08q-.32.57.15 1.04l.95.96a.83.82 47.5 0 0 1.1.05c25.89-21.52 31.73-51.37 24.81-83.2a.45.45 0 0 0-.83-.13c-5.14 8.58-14.08 20.42-12.8 30.98.53 4.44 1.98 8.73 1.24 12.89q-1.71 9.71-10.33 15.19-.46.29-.71.78-4.19 8.15-12.84 11.15a.53.52 13.3 0 1-.54-.87q6.32-6.07 7.9-14.95c.83-4.72 2.65-7.39 6.15-10.16 3.95-3.14 1.9-7.2-2.58-6.56q-.5.07-.79.48-2.37 3.45-6.69 3.59-.41.02-.75.24l-2.05 1.35q-.86.57-.52-.4c1.7-4.93 5.67-7.91 9.22-11.23a1.39 1.39 0 0 0-.86-2.4c-4.07-.25-12.87.31-14.67-3.8a.47.46-22.9 0 1 .26-.62q7.02-2.74 14.47-3.82a.88.88 0 0 0 .34-1.62c-3.95-2.44-9.33-5.91-10.5-10.38q-.15-.57.39-.34 8.08 3.36 16.63 1.02a.62.61 60.2 0 0 .27-1.02q-5.64-5.77-5.9-13.99a.51.51 0 0 1 .93-.31q4.25 6.05 11.87 4.66.53-.09.88-.49 9.77-11.18 17.82-23.66a.31.3-78.1 0 0-.3-.47q-8.63 1.39-16.84 4.37-.86.31-.86 1.22l-.06 11.99a.63.62 26.7 0 1-1.13.37l-6.26-8.34a1.32 1.31-31.8 0 0-1.65-.38q-7.03 3.61-12.84 8.95-.31.28-.09.64l6.38 10.15a.69.69 0 0 1-.85 1.01l-5.71-2.37q-.5-.21-1.02-.03l-5.44 1.9q-.53.19-1-.12c-3.57-2.37-5.48 2.93-6.66 5.21a1.15 1.14 31.6 0 0 .35 1.46l9.9 7.03q.36.26-.04.45-7.32 3.58-14.8.71-.61-.23-.87.38l-2.43 5.81q-.19.47.31.53 7.56.91 14.22 4.63 2.28 1.27-.3.94M170.62 211.83a.25.25 0 0 1 .13.38c-7.4 10.08 8.09 19.35 12.71 7.47a.52.52 0 0 1 .96 0l4.47 11.5a.18.18 0 0 0 .35-.07q.02-4.62.01-9.32c-.02-16.26-24.48-14.56-26.75-27.05a.6.6 0 0 0-.71-.48q-1.67.33-1.72 2.24-.36 11.82 10.55 15.33M229.4 212.66a.38.38 0 0 1 .17-.59q10.96-4.11 10.09-15.72c-.07-1.05-.58-1.58-1.4-2.11a.54.54 0 0 0-.83.38c-1.74 12.75-25.99 10.62-26.66 27.14q-.19 4.58-.04 9.2.04 1.22.47.08l4.07-10.61a.89.88 45.6 0 1 1.66.02c3.98 11 19.8 1.96 12.47-7.79" vector-effect="non-scaling-stroke"/></g><path fill="#46166b" d="M197.56 0h.5l2.69 12.55q.13.6-.46.8l-1.95.67q-.65.23-.92-.41-3.24-7.92-11.81-7.53-.46.02-.43.48l.68 11.99a.58.57-14.7 0 0 .83.48q3.3-1.61 3.64-5.36.07-.67.74-.67h1.85q.68 0 .72.68l.94 14.56q.03.61-.57.71l-1.96.34q-.72.12-.79-.61-.38-4.08-4.18-5.48a.63.63 0 0 0-.85.64l.98 13.87q.05.71.76.65 8.96-.68 10.78-9.44.09-.42.51-.52c3.02-.74 3.43.81 3.1 3.33q-.71 5.29-1.23 10.53-.06.57-.62.46-3.11-.61-5-.47-9.41.67-19.86 1.32a.84.84 0 0 1-.9-.84v-2.81q0-.59.58-.7l1.56-.3q.52-.09.48-.62l-2.1-30.88q-.04-.63-.66-.65l-1.43-.03q-.56-.02-.62-.57l-.31-2.97q-.06-.58.52-.63 10.01-.75 19.96-1.44 2.52-.17 4.83-1.13ZM218.37 25.33l-1.43 12.52q-.07.55.45.77 2.73 1.15.99 4.5-.16.31-.51.26l-13.16-1.59q-.51-.06-.45-.57l.35-3.21q.06-.51.56-.51h1.22q.66 0 .74-.65l3.68-30.49q.08-.63-.51-.86l-1.05-.39q-.61-.24-.54-.89l.28-2.67q.07-.67.74-.61 4.88.48 9.72 1.14c9.04 1.24 17.55 1.44 17.38 12.48-.07 4.96-2.34 8.62-7.06 10.11q-.56.18-.42.75l3.51 14.33q.11.47.55.7 2.6 1.33 1.03 4.56-.18.37-.59.32l-9.98-1.25q-.41-.05-.5-.45l-4.02-18.35a.5.5 0 0 0-.98.05Zm1.18-5.12c7.88 2.66 10.7-13 1.83-13.48q-.56-.03-.63.53l-1.53 12.43q-.05.39.33.52ZM166.41 41.26l1.52-.31q.63-.12.79.5l.75 2.86q.18.71-.53.88l-13.51 3.32q-.57.14-.73-.42l-.84-2.91q-.15-.55.37-.78l1.56-.68q.51-.22.38-.76l-7.36-30.05a.55.55 0 0 0-.99-.19q-2.87 4.05-2.57 9.06.04.72-.68.72h-2.12q-.55 0-.61-.56l-1.29-12.45q-.05-.48.43-.49c6.25-.05 13.82-2.72 19.96-4.25.95-.24 1.54-.87 2.44-1.3q.53-.26.75.29l4.64 11.65q.21.54-.29.81l-1.9 1.04q-.58.31-.86-.29-2.09-4.58-6.45-6.96a.6.6 0 0 0-.87.67l7.42 30.23q.12.46.59.37ZM270.38 54.8c-6.25 4.46-17.14-1.32-18.51-8.45q-.49-2.54.99-6.48 4.45-11.83 9.6-23.39.49-1.1-.91-1.52-.6-.18-.35-.75l1.31-2.92q.23-.52.75-.3l11.87 4.92q.56.24.33.81l-1.22 2.96q-.29.72-.96.32l-.86-.5q-.53-.31-.77.25-4.95 11.94-9.54 24c-3.01 7.89 6.69 11.37 9.74 4.32q4.47-10.34 8.67-20.81 1.31-3.26-1.35-5.19-.47-.33-.24-.85l1.18-2.67q.24-.55.79-.32l8.54 3.57q.46.19.27.65l-1.17 2.9q-.23.56-.82.45-2.46-.47-3.33 1.61-4.25 10.21-8.52 20.41-1.84 4.38-5.49 6.98ZM123.42 46.02c3.11 3.73 9.75 8.59 14.23 5.02q2.11-1.67 1.7-4.24c-1.18-7.38-14.52-3.43-19.89-7.5-8.6-6.52-8.71-23.41 5.56-23.25 2.26.03 3.34-.9 3.51-3.08a.34.33-58.2 0 1 .62-.15l6.48 10.88q.31.51-.12.93l-1.38 1.33q-.57.55-1.09-.03c-2.71-2.99-7.82-7.03-11.96-4.59-3.39 2-1.3 6.74 2.51 7.18q3.59.41 7.23.53c16.73.54 20.96 27.88 1.75 27.71-2.24-.02-3.96.4-4.07 2.87a.43.43 0 0 1-.79.2l-6.95-11.45q-.29-.49.12-.89l1.56-1.52q.51-.5.98.05ZM294.41 38.98a.26.26 0 0 0-.48-.17q-5.53 9.03-11.35 17.77-1.47 2.21.75 4.55.34.36.07.77l-1.69 2.57q-.34.51-.86.17l-7.35-4.85q-.56-.37-.19-.93l1.53-2.38q.28-.44.79-.33 2.53.55 4.14-1.87 5.91-8.85 11.57-17.88c1.77-2.84 3.8-4.22 2.08-7.91q-.19-.4.05-.78l1.54-2.48q.27-.43.7-.15l8.96 5.86q.5.33.43.92l-2.8 23.46a.33.32 64.1 0 0 .6.21q3.65-5.88 7.18-11.49c1.07-1.71.92-3.38-.39-4.78q-.38-.41-.07-.87l1.67-2.57q.32-.5.82-.18l7.41 4.85q.58.38.18.94l-1.74 2.48q-.31.44-.82.28-2.31-.72-3.45 1.02-9.18 14.09-18.24 28.26-.31.48-.78.15l-3.83-2.68q-.45-.31-.38-.85l3.95-31.11ZM95.46 73.98a.61.6 53.9 0 0 .72.12l1.63-.85q.55-.28.88.23l.89 1.33q.32.48.78.14l.32-.23q.24-.18.03-.39l-1.3-1.29q-.47-.47.04-.9l1.19-1.03q.45-.38.12-.88L83.67 44.24q-.38-.58-.93-.16l-1.18.9q-.49.37-.82-.15l-1.72-2.78q-.31-.51.19-.83c6.5-4.15 15.01-8.77 20.38-14.18q.42-.41.8.03l8.2 9.29q.41.47-.03.91L107 38.83q-.44.43-.91.04-6.71-5.5-13.89-.79-.5.33-.18.84l6.45 9.92a.48.47 48.9 0 0 .76.06q2.6-3.01.54-6.52-.31-.52.21-.84l1.84-1.12q.56-.34.92.21l7.99 12.17q.4.62-.17 1.08l-1.59 1.28q-.51.42-.88-.13-2.17-3.28-6.05-2.76a.74.74 0 0 0-.52 1.14L109.11 65q.23.36.6.14 7.83-4.71 5.04-13.92-.21-.68.47-.88l2.3-.68q.56-.16.79.38l4.97 11.66q.2.45-.23.69-14.85 8.33-22.47 14.21-2.72 2.09-9.88 9.68-.25.27-.59.1-3.39-1.73-1.66-4.67.32-.54-.12-.99l-9.37-9.44a.5.5 0 0 0-.69-.01l-5.21 5q-.45.44-.01.89l9.75 9.81q.48.48.88-.06l.75-1q.47-.63 1.02-.08l2.2 2.21q.53.53 0 1.06l-10.07 9.89q-.36.36-.71-.02l-2.24-2.43q-.45-.49.03-.95l1.06-1q.35-.34.01-.69L53.97 71.78q-.48-.48-1-.06l-1.19.95q-.41.32-.78-.05l-2.19-2.18q-.44-.44 0-.88l10.03-10.02q.34-.34.69-.01l2.22 2.09q.42.39.1.87l-.96 1.44q-.32.48.08.89L69.06 73q.37.38.76.01l5.21-5.04q.41-.4 0-.8l-8.23-8.25q-.45-.45-.94-.04l-1.21 1.05q-.43.36-.81-.05l-2.04-2.27q-.41-.46.03-.88l9.93-9.83a.65.64-43.5 0 1 .93.02l2.1 2.32q.37.41-.01.81l-.84.9q-.52.55.01 1.1l21.51 21.93ZM323.16 49.57l-1.28-1.34a.67.67 0 0 1-.05-.88l1.85-2.34a.67.67 0 0 1 .96-.09l11.24 9.74a.67.67 0 0 1 .07.95l-2.01 2.34a.67.67 0 0 1-.94.08l-1.43-1.17a.67.67 0 0 0-.93.08l-20.28 23.29a.67.67 0 0 0 .01.88l1.39 1.58a.67.67 0 0 1-.01.9l-2 2.15a.67.67 0 0 1-.93.04l-11.07-9.66a.67.67 0 0 1-.09-.92l1.89-2.41a.67.67 0 0 1 .98-.08l1.33 1.24a.67.67 0 0 0 .97-.05l20.36-23.43a.67.67 0 0 0-.03-.9ZM329.74 90.02q14.14-7.19 18.82-9.93 2.62-1.53 1.09-4.34-.29-.53.17-.92l2.26-1.96q.51-.45.96.06l5.95 6.75q.43.49-.05.92l-2.31 2.08q-.36.32-.75.05-1.93-1.37-4.46-.08-11.98 6.09-23.91 12.27c-2.59 1.34-3.49 3.33-4.41 5.87a.42.42 0 0 1-.7.14l-6.45-7.27a.72.71 42.2 0 1-.05-.89q10.64-15.19 21.17-30.21.45-.64-.32-1.41-.45-.45.02-.89l2.3-2.15q.51-.49.98.04l8.38 9.55q.38.43-.06.81l-2.38 2.05q-.43.37-.84-.03l-.65-.65q-.48-.48-.87.07l-14.18 19.74q-.54.75.29.33ZM52.12 87.23c-3.57-1.12-15.45-2.19-13.65 5.03 1.35 5.43 21.39 17.42 27.1 13.56 3.49-2.36 1.64-7.53-.53-10.46q-.45-.6.27-.82l2.43-.74q.45-.14.72.25c5.18 7.3 6.04 17.7-3.15 21.35-16.66 6.63-45.02-20.51-25.33-33.03q.45-.29.57-.81l.7-3.19q.12-.54.62-.28l11.29 5.96q.54.28.37.87l-.55 1.85q-.2.66-.86.46ZM337.76 113.84a.37.36 60.2 0 0-.13.49q4.54 8.09 13.96 5.54.63-.17.76.46l.47 2.28q.15.71-.54.97l-11.87 4.53q-.45.17-.6-.28c-2.39-7.15-8.34-15.15-12.43-21.59q-.37-.58.23-.92l2.83-1.63q.51-.29.81.2l.8 1.26q.3.48.78.19l26.32-16.12q.65-.4.3-1.08l-.52-1.02q-.3-.57.23-.94l2.49-1.75q.56-.4.92.19c4.02 6.6 8.29 15.4 13.64 20.82q.39.4-.04.75l-9.64 7.97q-.42.35-.8-.04l-1.48-1.53q-.52-.53-.04-1.09 5.36-6.41 1.19-13.72a.65.65 0 0 0-.9-.24l-9.98 6.03a.57.57 0 0 0-.09.9q2.8 2.62 6.25.74.58-.32.92.25l1.07 1.82q.33.54-.21.87l-12.78 7.87q-.55.34-.87-.22l-.99-1.74q-.32-.57.18-.99c1.99-1.68 3.74-3.84 2.46-6.31q-.28-.53-.8-.22l-11.9 7.3ZM332.27 191.47c-4.1 18.26-13.22 37.22-28.3 49.03-11.07 8.67-22.22 8.73-35.42 5.75q-.51-.12-.89.23-6.23 5.75-12.37 11.53c-4.67 4.38-6.94 10.74-8.05 16.74q-3.44 18.59-6.38 32.5c-1.91 9.04-5.07 15.26-10.7 21.91-2.09 2.48-4.12 2.68-7.14 2.29q-.54-.07-.82.4c-4.61 7.85-9.59 14.01-19.11 15.54-2.74.44-5-.31-7.77-.87-8.54-1.71-13.03-7.69-17.36-14.72q-.3-.48-.87-.49l-4.51-.11q-.55-.02-.93-.41-9.64-9.75-11.91-20.52-2.81-13.42-6.97-35.52c-1.11-5.87-3.28-12.31-7.81-16.61q-6.29-5.97-12.67-11.85-.37-.35-.86-.23c-7.93 1.88-16.14 2.66-24.03.34-21.2-6.26-36.06-36.11-39.82-55.22-3.79-19.31-1.65-40.35 8.05-57.72q.29-.52-.01-1.03l-7.98-13.33a.18.18 0 0 1 .16-.27q7.03.16 13.98.85c1.15.12 2.01 1.11 3.12-.26 8.24-10.28 18.38-21.23 29.91-27.06 36.49-18.44 78.22 4.09 84.93 44.06a.29.28-45.7 0 0 .56-.01c6.12-38.46 47.15-61.94 83.22-44.81 12.18 5.78 23.08 17.28 31.64 28.16q.24.31.64.28l15.96-1.15a.42.42 0 0 1 .39.64l-7.67 12.84a1.47 1.47 0 0 0-.03 1.44c9.32 17.1 12.08 38.68 7.82 57.66Zm-74.65-58.51q1.12 3.01-.82.45c-2.43-3.2-4.39-6.22-7.89-8.33q-8.44-5.09-15.11-12.35c-4.85-5.29-9.15 3.06-10.59 6.81a.53.52 20.1 0 0 .32.68q7.09 2.48 10.01 8.99c1.55 3.46 4.56 5.59 7.96 6.26q10.54 2.1 14.41 12.3a.46.46 0 0 1-.76.48c-3.78-4.03-8.07-7.27-13.91-7.29-3.86-.02-5.84 2-9.7-.59q-6.57-4.4-14.72-7.55a1.07 1.06-69.5 0 0-1.39.64l-5.07 14.14a.3.3 0 0 0 .35.39c9.06-2.16 16.21 3.01 21.82 9.37 1.9 2.14 3.69 2.91 6.26 3.68a.56.56 0 0 1 0 1.07c-9.85 3.07-17.07-6.81-25.95.43q-5.94 4.84-11.98 10.95a1.07 1.07 0 0 1-1.53 0c-4.75-4.86-14.37-15.8-21.76-13.64-5.87 1.72-10.48 3.75-16.63 1.88a.52.51-41.1 0 1 .07-1c2.9-.48 4.87-1.51 6.87-3.95 5.31-6.49 12.93-10.95 21.17-8.99a.44.44 0 0 0 .51-.58l-4.99-13.69q-.45-1.22-1.67-.77-8.46 3.15-15.78 8.41-.43.31-.96.33c-1.64.05-2.77.01-4.52-.37-6.63-1.43-12.57 2.06-16.72 6.88a.5.49-14.1 0 1-.84-.5q3.9-10.04 14.24-12.18c3.49-.72 6.59-2.79 8.16-6.33q2.89-6.56 9.98-8.94a.54.53 69.2 0 0 .32-.73c-1.35-3.11-5.94-12.05-10.25-7.27q-2.41 2.67-4.96 5.19c-4.58 4.51-10.74 6.59-14.95 11.55q-1.92 2.27-3.72 4.68a.38.38 0 0 1-.66-.37q2.17-5.52 4.92-10.93c1.48-2.92 5.65-4.96 6.28-8.23.43-2.21 2.86-10.71.89-12.3-6.39-5.16-13.01 2.66-14.29 8.62q-1.38 6.45-2.36 13-.08.54-.42.96-3.21 4.05-2.42 9.29a.62.62 0 0 1-1.12.45q-2.14-2.95-2.28-6.27c-.11-2.66 1.8-5.54 1.31-8.43q-.32-1.88-1.89-5.37c-1.53-3.38-1.49-6.66-2.51-10.22a.39.39 0 0 0-.59-.21c-3.26 2.21-8.29 4.58-8.38 9.48-.15 7.84.26 15.69 4.25 21.84q.49.76-.32.36-11.26-5.59-13.14-18.17a.45.45 0 0 0-.76-.25l-7.96 7.96a.29.29 0 0 0 .09.47c35.77 14.6 57.24 50.09 53.89 88.67q-1.31 14.98-11.83 25.17a.53.53 0 0 0 .03.8q6.76 5.36 13.41 10.28c4.58 3.38 6.02 25.27 11.95 24.69 7.87-.76 14.95-17.47 18.52-23.74a.93.93 0 0 1 1.74.46v35.71q0 .63-.63.6c-3.57-.2-7.5-.65-10.64.16-17.88 4.65-9.64 26.05-1.93 34.94a1.36 1.34-20.4 0 0 1.05.47l9.55-.16q1.49-.03 1.59-1.51.95-13.78-11.67-18.58-.38-.15-.76.02l-1.48.66q-.85.37-.73-.55c1.21-9.35 11.69-5.8 16.3-1.94q4.98 4.15 9.78 8.75.41.4.83.01 4.46-4.17 9.03-8.2c5.06-4.46 14.47-7.67 17.05 1.24a.57.57 0 0 1-.66.71l-2.19-.47q-.42-.08-.81.08-12.41 5.12-11.12 18.87a1.27 1.27 0 0 0 1.25 1.15l9.83.09q.57 0 .95-.42c6.91-7.76 14.24-24.51 3.45-32.41-5.37-3.94-9.99-2.95-15.85-2.96q-.69-.01-.69-.69v-35.8a.82.82 0 0 1 1.53-.41c3.42 5.97 10.75 22.91 18 23.9 7.5 1.03 7.29-20.28 12.89-24.57q6.57-5.04 13.09-10.1a.57.56 48.7 0 0 .05-.85c-10.44-10.53-12.86-23.3-11.99-37.72q.61-10.2 1.23-12.9 10.17-44.47 52.78-63.28.66-.29.14-.79l-7.7-7.47a.61.61 0 0 0-1.02.35q-1.9 12.4-12.99 17.84-.84.4-.34-.38c3.8-6.04 3.61-11.66 4.25-19.1.59-6.84-2.69-8.08-7.52-11.44q-1.66-1.16-2.02.83c-.56 3.07-.41 5.72-1.87 8.61-1.71 3.39-2.62 6.46-1.35 10.3q1.71 5.17-1.6 9.97a.65.64-23.5 0 1-1.17-.46c.84-5.54-2.25-6.99-3.03-11.52-1.24-7.12-1.4-15.81-7.83-20.28-3.32-2.32-7.11-2.15-9.51 1.27q-.28.41-.19.89c.89 4.5 1.31 8.73 3.25 12.91q.21.46.63.73c4.67 3.06 7.41 10.71 9.16 15.38ZM112 155.13c.19-2.78 4.67-8.53 6.42-10.79a.63.63 0 0 0-.09-.86q-6.11-5.16-13.14-8.95-.76-.41-1.28.27l-6.37 8.3a.72.72 0 0 1-1.29-.43v-12.15q0-.41-.39-.55-8.1-3.05-16.64-4.47-1.39-.23-.62.95 7.99 12.35 17.74 23.38.34.39.86.4c4.76.08 9.05-.45 11.38-4.75a.56.56 0 0 1 1 .01c1.67 3.25-3.53 11.82-5.84 14.27q-.51.54.19.77 8.69 2.76 16.86-.98a.34.34 0 0 1 .46.44c-2.06 5.1-6.75 7.78-11.07 10.79a.61.61 0 0 0 .27 1.11q7.73.99 14.95 3.97.56.23.28.77c-2.42 4.53-11.01 2.5-15.33 3.95a1 1 0 0 0-.39 1.66c3.92 3.92 7.28 6.56 9.52 11.71a.31.31 0 0 1-.46.38c-3.63-2.49-6.96-1.41-9.72-5.3q-.3-.42-.8-.49c-3.04-.43-6.96 3.24-3.54 5.75 3.9 2.86 6.36 6.07 7.21 11.06q1.08 6.35 4.87 11.6c.8 1.11 2.35 2.36 3.25 3.82q.42.66-.34.46c-5.47-1.44-9.66-5.38-12.72-9.99q-1.17-1.78-2.91-3.09-7.52-5.69-8.82-15.07c-.86-6.21 2.61-11.48 1.05-17.9-2.29-9.44-7.55-16.84-12.49-24.95a.49.49 0 0 0-.89.16q-3.41 16.34-2.3 32.93c1.28 18.98 12.1 37.42 26.31 49.38 1.06.9 2.14 1.28 2.84-.27a1.6 1.57-48.2 0 0-.07-1.47c-.79-1.33-6.59-9.64-3.07-10.23a1.08 1.05 59.8 0 1 .86.24q7.74 6.76 15.21 12.05c3.65 2.59 11.08 1.87 10.14-4.45-1.01-6.81-10.72-9.67-14.23-17.35a.47.47 0 0 1 .72-.56c5.71 4.71 12.76 6.26 18.43 9.9a1.64 1.63-56.8 0 0 2.23-.47c2.66-3.95 2.02-9-3.33-9.98-7.7-1.42-13.62-1.53-17.98-9.17a.34.34 0 0 1 .46-.46c6.08 3.6 11.3 2.17 17.87 2.04q3.33-.07 5.14.67.4.16.59-.22c3.13-6.43-6.42-8.15-10.37-7.32q-6.91 1.44-10.76-4.55-.44-.69.37-.54l7.08 1.29q.63.12 1.1-.3 4.75-4.21 10.85-1.66.6.25.97-.3 2.17-3.18.01-6.49-.26-.4-.71-.27l-4.38 1.18q-.48.13-.94-.09-4.93-2.41-10.46-2.08a.38.38 0 0 1-.2-.71q6.81-3.69 14.52-4.76.56-.08.34-.6l-2.39-5.8q-.25-.61-.87-.38-7.54 2.79-14.92-.68a.21.21 0 0 1-.03-.36l10.31-7.29q.72-.51.25-1.25l-3.57-5.66q-.4-.62-1.11-.41l-3 .91q-.55.16-1.04-.12-5.9-3.46-11.08.89a.59.59 0 0 1-.96-.49Zm161.78 26.96q-2.96-.37-6.97.73c-2.21.6-2.46 1.92-5.18 1.08q-1.5-.47-2.64-.71-.96-.2-1.46.64-1.88 3.19.22 5.92.37.48.94.26 6.24-2.42 10.97 1.78.46.41 1.06.29l7.1-1.39q.49-.09.27.36c-2.35 4.91-5.79 5-11.06 4.56-4.11-.34-12.89 1.03-10.07 7.56q.23.54.77.32 3.38-1.41 5.03-1.06 7.34 1.56 14.56-.14c1.2-.28 2.17-1.23 3.36-1.73q.76-.32.38.42c-3.74 7.29-10.16 8.41-18.33 9.24-4.62.47-5.65 6.4-3.02 9.77a2.02 2.01-34.3 0 0 2.62.49c6.33-3.8 12.36-4.97 18.02-9.73a.38.38 0 0 1 .62.37c-1.11 4.94-7.04 9.14-10.93 11.93-2.91 2.09-5.61 9.7-.35 11.02 2.67.67 5.31.8 7.76-.95q8.02-5.74 15.24-12.57.34-.33.7-.01c2.7 2.48-2.24 8.53-3.64 11.08q-.32.57.15 1.04l.95.96a.83.82 47.5 0 0 1.1.05c25.89-21.52 31.73-51.37 24.81-83.2a.45.45 0 0 0-.83-.13c-5.14 8.58-14.08 20.42-12.8 30.98.53 4.44 1.98 8.73 1.24 12.89q-1.71 9.71-10.33 15.19-.46.29-.71.78-4.19 8.15-12.84 11.15a.53.52 13.3 0 1-.54-.87q6.32-6.07 7.9-14.95c.83-4.72 2.65-7.39 6.15-10.16 3.95-3.14 1.9-7.2-2.58-6.56q-.5.07-.79.48-2.37 3.45-6.69 3.59-.41.02-.75.24l-2.05 1.35q-.86.57-.52-.4c1.7-4.93 5.67-7.91 9.22-11.23a1.39 1.39 0 0 0-.86-2.4c-4.07-.25-12.87.31-14.67-3.8a.47.46-22.9 0 1 .26-.62q7.02-2.74 14.47-3.82a.88.88 0 0 0 .34-1.62c-3.95-2.44-9.33-5.91-10.5-10.38q-.15-.57.39-.34 8.08 3.36 16.63 1.02a.62.61 60.2 0 0 .27-1.02q-5.64-5.77-5.9-13.99a.51.51 0 0 1 .93-.31q4.25 6.05 11.87 4.66.53-.09.88-.49 9.77-11.18 17.82-23.66a.31.3-78.1 0 0-.3-.47q-8.63 1.39-16.84 4.37-.86.31-.86 1.22l-.06 11.99a.63.62 26.7 0 1-1.13.37l-6.26-8.34a1.32 1.31-31.8 0 0-1.65-.38q-7.03 3.61-12.84 8.95-.31.28-.09.64l6.38 10.15a.69.69 0 0 1-.85 1.01l-5.71-2.37q-.5-.21-1.02-.03l-5.44 1.9q-.53.19-1-.12c-3.57-2.37-5.48 2.93-6.66 5.21a1.15 1.14 31.6 0 0 .35 1.46l9.9 7.03q.36.26-.04.45-7.32 3.58-14.8.71-.61-.23-.87.38l-2.43 5.81q-.19.47.31.53 7.56.91 14.22 4.63 2.28 1.27-.3.94Z"/><path fill="#fdb827" d="M257.62 132.96c-1.75-4.67-4.49-12.32-9.16-15.38q-.42-.27-.63-.73c-1.94-4.18-2.36-8.41-3.25-12.91q-.09-.48.19-.89c2.4-3.42 6.19-3.59 9.51-1.27 6.43 4.47 6.59 13.16 7.83 20.28.78 4.53 3.87 5.98 3.03 11.52a.65.64-23.5 0 0 1.17.46q3.31-4.8 1.6-9.97c-1.27-3.84-.36-6.91 1.35-10.3 1.46-2.89 1.31-5.54 1.87-8.61q.36-1.99 2.02-.83c4.83 3.36 8.11 4.6 7.52 11.44-.64 7.44-.45 13.06-4.25 19.1q-.5.78.34.38 11.09-5.44 12.99-17.84a.61.61 0 0 1 1.02-.35l7.7 7.47q.52.5-.14.79-42.61 18.81-52.78 63.28-.62 2.7-1.23 12.9c-.87 14.42 1.55 27.19 11.99 37.72a.57.56 48.7 0 1-.05.85q-6.52 5.06-13.09 10.1c-5.6 4.29-5.39 25.6-12.89 24.57-7.25-.99-14.58-17.93-18-23.9a.82.82 0 0 0-1.53.41v35.8q0 .68.69.69c5.86.01 10.48-.98 15.85 2.96 10.79 7.9 3.46 24.65-3.45 32.41q-.38.42-.95.42l-9.83-.09a1.27 1.27 0 0 1-1.25-1.15q-1.29-13.75 11.12-18.87.39-.16.81-.08l2.19.47a.57.57 0 0 0 .66-.71c-2.58-8.91-11.99-5.7-17.05-1.24q-4.57 4.03-9.03 8.2-.42.39-.83-.01-4.8-4.6-9.78-8.75c-4.61-3.86-15.09-7.41-16.3 1.94q-.12.92.73.55l1.48-.66q.38-.17.76-.02 12.62 4.8 11.67 18.58-.1 1.48-1.59 1.51l-9.55.16a1.36 1.34-20.4 0 1-1.05-.47c-7.71-8.89-15.95-30.29 1.93-34.94 3.14-.81 7.07-.36 10.64-.16q.63.03.63-.6v-35.71a.93.93 0 0 0-1.74-.46c-3.57 6.27-10.65 22.98-18.52 23.74-5.93.58-7.37-21.31-11.95-24.69q-6.65-4.92-13.41-10.28a.53.53 0 0 1-.03-.8q10.52-10.19 11.83-25.17c3.35-38.58-18.12-74.07-53.89-88.67a.29.29 0 0 1-.09-.47l7.96-7.96a.45.45 0 0 1 .76.25q1.88 12.58 13.14 18.17.81.4.32-.36c-3.99-6.15-4.4-14-4.25-21.84.09-4.9 5.12-7.27 8.38-9.48a.39.39 0 0 1 .59.21c1.02 3.56.98 6.84 2.51 10.22q1.57 3.49 1.89 5.37c.49 2.89-1.42 5.77-1.31 8.43q.14 3.32 2.28 6.27a.62.62 0 0 0 1.12-.45q-.79-5.24 2.42-9.29.34-.42.42-.96.98-6.55 2.36-13c1.28-5.96 7.9-13.78 14.29-8.62 1.97 1.59-.46 10.09-.89 12.3-.63 3.27-4.8 5.31-6.28 8.23q-2.75 5.41-4.92 10.93a.38.38 0 0 0 .66.37q1.8-2.41 3.72-4.68c4.21-4.96 10.37-7.04 14.95-11.55q2.55-2.52 4.96-5.19c4.31-4.78 8.9 4.16 10.25 7.27a.54.53 69.2 0 1-.32.73q-7.09 2.38-9.98 8.94c-1.57 3.54-4.67 5.61-8.16 6.33q-10.34 2.14-14.24 12.18a.5.49-14.1 0 0 .84.5c4.15-4.82 10.09-8.31 16.72-6.88 1.75.38 2.88.42 4.52.37q.53-.02.96-.33 7.32-5.26 15.78-8.41 1.22-.45 1.67.77l4.99 13.69a.44.44 0 0 1-.51.58c-8.24-1.96-15.86 2.5-21.17 8.99-2 2.44-3.97 3.47-6.87 3.95a.52.51-41.1 0 0-.07 1c6.15 1.87 10.76-.16 16.63-1.88 7.39-2.16 17.01 8.78 21.76 13.64a1.07 1.07 0 0 0 1.53 0q6.04-6.11 11.98-10.95c8.88-7.24 16.1 2.64 25.95-.43a.56.56 0 0 0 0-1.07c-2.57-.77-4.36-1.54-6.26-3.68-5.61-6.36-12.76-11.53-21.82-9.37a.3.3 0 0 1-.35-.39l5.07-14.14a1.07 1.06-69.5 0 1 1.39-.64q8.15 3.15 14.72 7.55c3.86 2.59 5.84.57 9.7.59 5.84.02 10.13 3.26 13.91 7.29a.46.46 0 0 0 .76-.48q-3.87-10.2-14.41-12.3c-3.4-.67-6.41-2.8-7.96-6.26q-2.92-6.51-10.01-8.99a.53.52 20.1 0 1-.32-.68c1.44-3.75 5.74-12.1 10.59-6.81q6.67 7.26 15.11 12.35c3.5 2.11 5.46 5.13 7.89 8.33q1.94 2.56.82-.45Zm-87 78.87a.25.25 0 0 1 .13.38c-7.4 10.08 8.09 19.35 12.71 7.47a.52.52 0 0 1 .96 0l4.47 11.5a.18.18 0 0 0 .35-.07q.02-4.62.01-9.32c-.02-16.26-24.48-14.56-26.75-27.05a.6.6 0 0 0-.71-.48q-1.67.33-1.72 2.24-.36 11.82 10.55 15.33Zm58.78.83a.38.38 0 0 1 .17-.59q10.96-4.11 10.09-15.72c-.07-1.05-.58-1.58-1.4-2.11a.54.54 0 0 0-.83.38c-1.74 12.75-25.99 10.62-26.66 27.14q-.19 4.58-.04 9.2.04 1.22.47.08l4.07-10.61a.89.88 45.6 0 1 1.66.02c3.98 11 19.8 1.96 12.47-7.79Z"/><path fill="#46166b" d="m363.68 135.56-12.04 4.65q-.58.22-.46.83l.19 1.04q.12.6-.45.84l-2.59 1.1a.81.8 68 0 1-1.07-.46l-4.7-12.48q-.18-.48.3-.66l2.95-1.15q.59-.24.88.34l.53 1.08q.27.55.84.33L377 120.11q.48-.18.4-.68l-.2-1.37q-.09-.61.5-.8l2.73-.89q.5-.16.69.33 3.03 7.56 5.68 15.23c1.99 5.76 1.84 10.65-3.52 14.32-4.31 2.95-9.93 3.27-13.88-.78q-.37-.38-.78-.04-8.77 7.3-11.36 9.83-.61.6-.27 1.82.18.65-.44.9l-2.86 1.14q-.5.21-.69-.3l-3.57-9.48q-.2-.53.23-.9l14.46-12.12a.45.44-75.3 0 0-.44-.76Zm4.98-1.22c1.06 8.84 17.09 2.47 12.53-4.67q-.27-.43-.75-.25l-11.45 4.37q-.38.15-.33.55ZM18.52 129.35a.42.42 0 0 0 .09.75l29.49 10.51q.53.19.74-.33l.56-1.39q.25-.63.89-.4l2.93 1.06q.54.2.35.75l-4.82 13.44q-.2.58-.77.32l-3.23-1.46q-.61-.28-.19-.8 1.3-1.61-.38-2.19-14.52-4.99-28.84-10.3a.49.49 0 0 0-.62.64q1.88 4.74 6.32 7.45.63.38.18.96l-1.18 1.54q-.42.54-1.04.23l-10.8-5.6q-.41-.22-.21-.64 4.96-10.54 7.84-21.85.13-.51.64-.41l12.06 2.5q.6.13.51.73l-.32 2.11q-.09.64-.73.52-5.17-.92-9.47 1.86Z"/><path fill="#fdb827" d="M112 155.13a.59.59 0 0 0 .96.49q5.18-4.35 11.08-.89.49.28 1.04.12l3-.91q.71-.21 1.11.41l3.57 5.66q.47.74-.25 1.25l-10.31 7.29a.21.21 0 0 0 .03.36q7.38 3.47 14.92.68.62-.23.87.38l2.39 5.8q.22.52-.34.6-7.71 1.07-14.52 4.76a.38.38 0 0 0 .2.71q5.53-.33 10.46 2.08.46.22.94.09l4.38-1.18q.45-.13.71.27 2.16 3.31-.01 6.49-.37.55-.97.3-6.1-2.55-10.85 1.66-.47.42-1.1.3l-7.08-1.29q-.81-.15-.37.54 3.85 5.99 10.76 4.55c3.95-.83 13.5.89 10.37 7.32q-.19.38-.59.22-1.81-.74-5.14-.67c-6.57.13-11.79 1.56-17.87-2.04a.34.34 0 0 0-.46.46c4.36 7.64 10.28 7.75 17.98 9.17 5.35.98 5.99 6.03 3.33 9.98a1.64 1.63-56.8 0 1-2.23.47c-5.67-3.64-12.72-5.19-18.43-9.9a.47.47 0 0 0-.72.56c3.51 7.68 13.22 10.54 14.23 17.35.94 6.32-6.49 7.04-10.14 4.45q-7.47-5.29-15.21-12.05a1.08 1.05 59.8 0 0-.86-.24c-3.52.59 2.28 8.9 3.07 10.23a1.6 1.57-48.2 0 1 .07 1.47c-.7 1.55-1.78 1.17-2.84.27-14.21-11.96-25.03-30.4-26.31-49.38q-1.11-16.59 2.3-32.93a.49.49 0 0 1 .89-.16c4.94 8.11 10.2 15.51 12.49 24.95 1.56 6.42-1.91 11.69-1.05 17.9q1.3 9.38 8.82 15.07 1.74 1.31 2.91 3.09c3.06 4.61 7.25 8.55 12.72 9.99q.76.2.34-.46c-.9-1.46-2.45-2.71-3.25-3.82q-3.79-5.25-4.87-11.6c-.85-4.99-3.31-8.2-7.21-11.06-3.42-2.51.5-6.18 3.54-5.75q.5.07.8.49c2.76 3.89 6.09 2.81 9.72 5.3a.31.31 0 0 0 .46-.38c-2.24-5.15-5.6-7.79-9.52-11.71a1 1 0 0 1 .39-1.66c4.32-1.45 12.91.58 15.33-3.95q.28-.54-.28-.77-7.22-2.98-14.95-3.97a.61.61 0 0 1-.27-1.11c4.32-3.01 9.01-5.69 11.07-10.79a.34.34 0 0 0-.46-.44q-8.17 3.74-16.86.98-.7-.23-.19-.77c2.31-2.45 7.51-11.02 5.84-14.27a.56.56 0 0 0-1-.01c-2.33 4.3-6.62 4.83-11.38 4.75q-.52-.01-.86-.4-9.75-11.03-17.74-23.38-.77-1.18.62-.95 8.54 1.42 16.64 4.47.39.14.39.55v12.15a.72.72 0 0 0 1.29.43l6.37-8.3q.52-.68 1.28-.27 7.03 3.79 13.14 8.95a.63.63 0 0 1 .09.86c-1.75 2.26-6.23 8.01-6.42 10.79ZM273.78 182.09q2.58.33.3-.94-6.66-3.72-14.22-4.63-.5-.06-.31-.53l2.43-5.81q.26-.61.87-.38 7.48 2.87 14.8-.71.4-.19.04-.45l-9.9-7.03a1.15 1.14 31.6 0 1-.35-1.46c1.18-2.28 3.09-7.58 6.66-5.21q.47.31 1 .12l5.44-1.9q.52-.18 1.02.03l5.71 2.37a.69.69 0 0 0 .85-1.01l-6.38-10.15q-.22-.36.09-.64 5.81-5.34 12.84-8.95a1.32 1.31-31.8 0 1 1.65.38l6.26 8.34a.63.62 26.7 0 0 1.13-.37l.06-11.99q0-.91.86-1.22 8.21-2.98 16.84-4.37a.31.3-78.1 0 1 .3.47q-8.05 12.48-17.82 23.66-.35.4-.88.49-7.62 1.39-11.87-4.66a.51.51 0 0 0-.93.31q.26 8.22 5.9 13.99a.62.61 60.2 0 1-.27 1.02q-8.55 2.34-16.63-1.02-.54-.23-.39.34c1.17 4.47 6.55 7.94 10.5 10.38a.88.88 0 0 1-.34 1.62q-7.45 1.08-14.47 3.82a.47.46-22.9 0 0-.26.62c1.8 4.11 10.6 3.55 14.67 3.8a1.39 1.39 0 0 1 .86 2.4c-3.55 3.32-7.52 6.3-9.22 11.23q-.34.97.52.4l2.05-1.35q.34-.22.75-.24 4.32-.14 6.69-3.59.29-.41.79-.48c4.48-.64 6.53 3.42 2.58 6.56-3.5 2.77-5.32 5.44-6.15 10.16q-1.58 8.88-7.9 14.95a.53.52 13.3 0 0 .54.87q8.65-3 12.84-11.15.25-.49.71-.78 8.62-5.48 10.33-15.19c.74-4.16-.71-8.45-1.24-12.89-1.28-10.56 7.66-22.4 12.8-30.98a.45.45 0 0 1 .83.13c6.92 31.83 1.08 61.68-24.81 83.2a.83.82 47.5 0 1-1.1-.05l-.95-.96q-.47-.47-.15-1.04c1.4-2.55 6.34-8.6 3.64-11.08q-.36-.32-.7.01-7.22 6.83-15.24 12.57c-2.45 1.75-5.09 1.62-7.76.95-5.26-1.32-2.56-8.93.35-11.02 3.89-2.79 9.82-6.99 10.93-11.93a.38.38 0 0 0-.62-.37c-5.66 4.76-11.69 5.93-18.02 9.73a2.02 2.01-34.3 0 1-2.62-.49c-2.63-3.37-1.6-9.3 3.02-9.77 8.17-.83 14.59-1.95 18.33-9.24q.38-.74-.38-.42c-1.19.5-2.16 1.45-3.36 1.73q-7.22 1.7-14.56.14-1.65-.35-5.03 1.06-.54.22-.77-.32c-2.82-6.53 5.96-7.9 10.07-7.56 5.27.44 8.71.35 11.06-4.56q.22-.45-.27-.36l-7.1 1.39q-.6.12-1.06-.29-4.73-4.2-10.97-1.78-.57.22-.94-.26-2.1-2.73-.22-5.92.5-.84 1.46-.64 1.14.24 2.64.71c2.72.84 2.97-.48 5.18-1.08q4.01-1.1 6.97-.73Z"/><path fill="#46166b" d="M373.92 159.4c7.53-7.39 24.16-6.01 22.42 7.87q-.22 1.75-.38 3.6-.05.55.38.9l1.56 1.3q.66.55-.16.81l-11.51 3.74q-.51.16-.78-.29l-1.12-1.9q-.29-.49.2-.77 4.5-2.55 6.61-5.73c4.33-6.49-5.17-11.28-7.32-2.92-1.5 5.83-2.83 11.31-8.14 14.39-7.61 4.42-20.01 2.32-21.28-8.22-.29-2.38.34-5.21.67-7.79q.08-.55-.39-.86l-1.62-1.06a.55.55 0 0 1 .13-.98l12.56-4.07q.48-.16.71.29l1.04 1.98q.23.44-.18.71c-4.31 2.89-10.2 6.79-8.17 12.64 1.1 3.15 4.69 3.93 7.14 2 4.37-3.43 3.31-11.4 7.63-15.64ZM38.9 165.94c-6.43-3.35-10.77 8.32-15.63 11.28-10.15 6.16-26.22-3.18-18.23-16.56 1.09-1.83 1-3.04-.53-4.42a.39.39 0 0 1 .28-.68l12.53.76q.53.03.63.56l.35 1.82q.11.59-.47.73c-3.5.85-7.6 1.76-9.8 5.23-3.56 5.61 4.2 8.44 8.06 2.67 2.54-3.79 5.22-7.73 9.06-9.28 9.99-4.06 24.57 4.04 19.37 16.47-1.23 2.93-3.65 4.09-1.45 7.75q.3.51-.3.49l-13.18-.59q-.56-.03-.65-.58l-.33-2.05q-.09-.55.46-.66c5.19-1.04 11.4-2.81 12.12-8.93.17-1.47-.89-3.28-2.29-4.01ZM362.43 188.07l31-1.37a.59.59 0 0 0 .56-.58l.03-1.97a.59.59 0 0 1 .55-.58l3.21-.23a.59.59 0 0 1 .63.57l.6 14.94a.59.59 0 0 1-.56.61l-2.99.15a.59.59 0 0 1-.6-.46l-.45-2.1a.59.59 0 0 0-.6-.47l-30.99 1.3a.59.59 0 0 0-.57.59v2.08a.59.59 0 0 1-.56.59l-3.23.14a.59.59 0 0 1-.61-.56l-.61-15.11a.59.59 0 0 1 .59-.61h3.08a.59.59 0 0 1 .59.5l.32 2.07a.59.59 0 0 0 .61.5ZM5.84 200.8l11.49.04a.67.67 0 0 0 .64-.9q-1.2-3.37-4.88-3.76-.61-.06-.6-.67l.03-2.16q.01-.69.7-.68l14.97.28q.73.02.63.75l-.27 1.99q-.06.51-.58.55-3.43.22-5.14 3.12-.94 1.6.92 1.61l13.31.09a.53.53 0 0 0 .53-.52q.08-9.26-8.88-11.77-.72-.2-.49-.91l.76-2.36q.18-.56.75-.45l12.61 2.4q.5.1.4.6c-1.48 7.88-.76 16.89-1.05 24.97q-.02.4-.42.42l-3.05.21a.75.74-83.5 0 1-.76-.96c.39-1.27-.21-1.92-1.5-1.93q-14.51-.03-29.9-.03a.82.81 6.1 0 0-.8.64l-.32 1.45q-.18.84-1.03.74l-2.52-.3q-.55-.06-.56-.62l-.25-25.02q-.01-.32.3-.36l11.9-1.62q.61-.08.71.53l.33 2.12q.1.67-.54.89-7.9 2.68-8.05 11-.01.62.61.62ZM170.62 211.83q-10.91-3.51-10.55-15.33.05-1.91 1.72-2.24a.6.6 0 0 1 .71.48c2.27 12.49 26.73 10.79 26.75 27.05q.01 4.7-.01 9.32a.18.18 0 0 1-.35.07l-4.47-11.5a.52.52 0 0 0-.96 0c-4.62 11.88-20.11 2.61-12.71-7.47a.25.25 0 0 0-.13-.38ZM229.4 212.66c7.33 9.75-8.49 18.79-12.47 7.79a.89.88 45.6 0 0-1.66-.02l-4.07 10.61q-.43 1.14-.47-.08-.15-4.62.04-9.2c.67-16.52 24.92-14.39 26.66-27.14a.54.54 0 0 1 .83-.38c.82.53 1.33 1.06 1.4 2.11q.87 11.61-10.09 15.72a.38.38 0 0 0-.17.59ZM392.23 222.67l-30.44-2.76q-.61-.05-.76.54l-.39 1.5q-.15.59-.76.53l-2.89-.3q-.63-.07-.57-.7l1.21-13.56q.05-.54.57-.68 3.68-1 3.95 2.07.06.74.8.81l30.55 2.81a.53.53 0 0 0 .48-.84q-2.87-4.08-7.77-5.44-.78-.22-.48-.97l.77-1.95q.21-.53.76-.4l11.95 2.84q.61.14.49.77c-1.38 6.75-1.78 13.34-2.45 20.19q-.05.45.07.89l.44 1.71q.16.64-.5.66l-12.6.54q-.56.03-.64-.52l-.32-2.09q-.1-.72.62-.78 4.82-.4 8.33-3.59a.74.73-63.4 0 0-.42-1.28ZM13.44 258.65q-.68 2.71-3.95 2.15-.42-.08-.5-.49l-2.42-11.85q-.14-.68.53-.83l2.77-.62q.58-.13.85.41l.5 1.02q.24.49.74.29l20.97-8.35a.33.33 0 0 0-.15-.64q-6.64.61-13.24.56c-3.73-.03-7.8 2.56-11.24 3.92q-.43.17-.64-.24l-4.02-7.66q-.25-.48.25-.7c2.46-1.06 25.47-10.59 25.5-10.96a.37.37 0 0 0-.39-.4q-7.24.45-14.49.35c-2.69-.04-7.51.31-7.78 3.67q-.04.53-.56.64l-2.93.64q-.56.12-.68-.44l-1.83-8.61q-.16-.75.59-.89l2.8-.55q.54-.1.79.38 1.07 2.1 3.4 2.03 13.22-.36 26.44-.23 3.86.03 6.85-2.47a.8.8 0 0 1 1.3.46l1.71 8.42a1.03 1.03 0 0 1-.62 1.16l-17.82 7.36a.41.41 0 0 0 .17.79l14.37-.47q.41-.01.77-.21l3.84-2.11q.63-.34.77.35l1.76 8.74q.15.76-.57 1.06l-33.31 13.71q-.42.17-.53.61ZM358.81 236.81c4.17 1.03 9.26 3.05 13.55 2.48q9.16-1.21 18.3-2.44.55-.07.81-.56l.28-.52q.29-.55.9-.39l2.88.76q.65.17.48.82l-3.39 12.82q-.17.65-.82.48l-2.74-.72q-.56-.14-.56-.72v-1.02q0-.61-.61-.53l-13.51 1.74a.42.41-30.1 0 0-.2.74l8.67 6.49a2.1 2.09 35 0 0 3.01-.52q1.8-2.74 4.87-.49.41.3.28.8l-2.47 9.3q-.19.7-.88.47l-2.69-.91q-.48-.16-.59-.66c-1.1-4.75-10.56-10.28-14.48-13.22-3.79-2.85-9.11-3.58-13.62-4.78q-.54-.15-.74.37l-.57 1.52q-.23.61-.86.45l-3.01-.8q-.53-.15-.39-.68l3.61-13.68q.17-.64.8-.47l2.93.79q.63.17.5.82l-.28 1.41q-.14.68.54.85Z"/><circle cx="360.06" cy="278.19" r="12.13" fill="#fdb827"/><circle cx="38.76" cy="279.17" r="12.13" fill="#fdb827"/><path fill="#46166b" d="M322.69 317.81c-7.4-6.56-7.72-14.95 1.44-19.82 1.8-.95 2.42-2.16 1.58-4.05a.34.34 0 0 1 .49-.42l10.73 6.75q.5.31.27.86l-.73 1.76q-.22.52-.77.37c-4.78-1.27-10.42-2.98-13.39 2.3q-.28.49-.14 1.03c1.1 4.38 4.33 4.36 7.93 2.8 5.39-2.33 10.22-5.37 16.35-2.66q5.57 2.47 8.28 7.34c4.71 8.42-.2 13.9-7.07 18.15q-1.4.87-1.18 2.84.14 1.16-.86.54l-10.74-6.65q-.62-.38-.34-1.05l.75-1.8q.22-.54.77-.35c4.35 1.51 10.45 2.98 14.05-.88 3.95-4.23-.61-8.93-5.34-7.65-8.35 2.25-13.61 8.11-22.08.59ZM74.52 303.37q-2.84-.94-6.08 1.33c-6.54 4.58-19.01 13.72-17.84 21.98a1.58 1.58 0 0 0 2.56 1l5.38-4.37q.4-.32.25-.81l-.29-.9q-.15-.5.23-.85l2.08-1.88q.51-.47.96.06l6.99 8.38q.32.39.06.82-1.44 2.36-3.94 2.21-.59-.03-1.05.35l-7.56 6.33q-.46.39-.86-.07-1.9-2.17-3.38-3.16c-28.22-18.84 21.79-54.14 30.51-26.46.46 1.44 1.24 1.89 2.69 1.67a.58.58 0 0 1 .52.96l-8.37 9.62q-.32.37-.75.12l-1.89-1.11q-.47-.28-.19-.75c1.99-3.27 5.5-12.63-.03-14.47ZM309.75 335.76a.38.38 0 0 0 .57-.46l-6.96-15.18q-.24-.52.2-.88l8.96-7.33q.47-.39.83.1l1.93 2.53q.32.41-.03.79l-.81.87q-.39.44-.01.88l20.06 23.47q.43.5.97.13l.89-.59q.53-.36.94.14l1.91 2.35q.37.44-.08.81l-10.61 8.65q-.4.33-.73-.08l-2-2.43q-.39-.48.03-.92l.77-.83q.43-.45.03-.94l-15.64-18.85a.25.25 0 0 0-.42.27l9.49 20.84q.23.5-.19.87l-2.58 2.3q-.39.34-.81.03l-18.52-13.6q-1.81-1.32-.38.4 3.14 3.78 13.1 16.47 2.12 2.7 5 1.51.56-.24.94.24l1.77 2.22q.4.49-.09.89l-7.13 5.85q-.41.34-.74-.08l-1.98-2.47q-.35-.44-.02-.89 1.63-2.25-.16-4.58l-17.14-22.28q-.39-.52-.91-.12l-1.12.85q-.46.35-.84-.09l-2.01-2.34q-.45-.52.08-.95l8.97-7.33q.5-.41 1.03-.03l13.44 9.79Z"/><path fill="#46166b" d="M73.665 355.666a21.54 15.13 129.1 0 1 1.843-26.258 21.54 15.13 129.1 0 1 25.327-7.174 21.54 15.13 129.1 0 1-1.843 26.258 21.54 15.13 129.1 0 1-25.327 7.174Zm3.165-3.346q1.1.85 2.37.31c5.18-2.17 21.73-20.07 19.41-25.86-1.35-3.38-5.82-.48-7.41 1.01-3.14 2.94-19.99 20.21-14.37 24.54Z"/><path fill="#46166b" d="m121.36 343.23-15.06 27.35a.47.46-59.9 0 0 .16.62c4.73 3 9.87-.08 13.11-3.63q.36-.39.7.01l1.55 1.86q.37.45 0 .91l-8.36 10.37q-.33.4-.7.05c-4.77-4.59-12.91-8.16-19.06-11.43q-.79-.41-.39-1.21l1.33-2.67q.26-.53.77-.24l1.35.75q.61.34.95-.27l14.98-27.17q.31-.57-.23-.91l-1.35-.86q-.39-.24-.17-.65l1.58-2.87q.27-.5.77-.22l12.75 7.05q.49.27.21.76l-1.69 3q-.22.39-.61.16l-1.65-1.01q-.6-.36-.94.25ZM293.17 369.93l-4.18-4.78q-.36-.41-.83-.16l-6.37 3.41q-.49.27-.42.82c.37 2.63 1.67 7.62 5.14 5.52q.48-.29.74.2l1.46 2.79q.3.57-.27.88l-8.24 4.42q-.41.22-.61-.19l-1.32-2.63q-.26-.51.1-.95 1.39-1.67.63-4.75-3.06-12.4-6.12-24.79c-.77-3.11-1.66-4.97-4.5-6.23a.49.49 0 0 1-.05-.87l8.22-4.86q.5-.3.88.13l24.49 27.23q.34.38.86.38h1.52q.48 0 .7.43l1.22 2.4q.31.61-.29.93l-11.51 6.16q-.41.22-.64-.19l-1.49-2.67q-.26-.46.11-.84l.74-.73q.51-.52.03-1.06Zm-8.02-8.49a.33.33 0 0 0 .09-.51l-7.96-9.13a.33.33 0 0 0-.57.3l3.17 11.63a.33.33 0 0 0 .47.2l4.8-2.49ZM135.21 349.98l-1.05-.43q-.62-.26-.39-.89l1.08-2.92q.17-.48.65-.32c5.74 1.92 15.22 4.01 19.2 8.04 11.37 11.51-1.14 41.36-19.21 35.34l-12.98-4.32q-.65-.22-.43-.87l.91-2.68q.21-.6.83-.48l1.45.29q.58.12.77-.45l9.77-29a1.06 1.05-69.8 0 0-.6-1.31Zm.46 34.28c8.51 2.8 13.12-16.22 14.15-21.51.81-4.16.49-6.96-3.28-9.05q-.96-.53-1.31.51l-9.86 29.43q-.16.46.3.62ZM246.69 389.7a.4.4 0 0 0 .25-.51l-9.52-29.64q-.21-.65-.89-.56l-.97.13q-.61.09-.82-.49l-.98-2.64q-.23-.59.38-.8 10.08-3.48 17.56-5.49c11.33-3.04 18.22 10.7 10.68 18.74q-.39.43-.03.89l9.3 11.72q.28.35.72.3l1.13-.11q.55-.06.73.47l1.02 3.04q.13.38-.25.5l-9.83 3.22q-.45.15-.74-.23l-11.48-15.14a.43.43 0 0 0-.75.39l3.99 12.22q.18.54.75.54h1.33q.55 0 .71.52l.83 2.65q.21.66-.44.87l-12.67 4.06q-.59.19-.76-.41l-.81-2.92q-.2-.71.5-.95l1.06-.37Zm4.52-21.13c8.59-1.08 3.65-16.59-4.05-12.92q-.48.22-.31.73l3.83 11.85q.12.39.53.34ZM183.94 400h-.5c-2.56-2.34-20.04-3.68-24.38-4.12q-.63-.06-.55-.69l.38-3.06q.08-.63.72-.63h1.55q.59 0 .67-.59l4.15-30.53q.09-.61-.51-.78l-1.48-.42q-.54-.16-.48-.71l.32-3.02q.06-.57.62-.5c7.96.99 16.72 3.03 24.67 2.68q.58-.02.59.57l.13 12.24q.01.72-.71.75l-2.01.08q-.55.03-.65-.51-1.62-8.44-9.98-9.77-.62-.1-.71.53l-1.6 11.69a.64.64 0 0 0 .8.7q3.57-.99 4.48-4.62.14-.59.74-.48l2 .37q.64.11.55.76l-2.03 14.81q-.09.66-.73.53l-1.98-.39q-.56-.12-.52-.69.29-4.07-3.1-6.02a.65.65 0 0 0-.97.48l-1.85 13.83a.66.66 0 0 0 .59.75q9.2.85 12.68-7.54.24-.58.81-.31l2.33 1.08q.55.25.35.82L183.94 400ZM194.94 400h-1q-1.69-3.67 1.44-5.39.44-.25.58-.74.42-1.58.29-3.62-.3-4.75-1.02-22.5-.15-3.78-2.77-5.06-.46-.22-.46-.73v-2.59q0-.62.62-.65l10.36-.49q.61-.03.9.5l11.45 21.1a.26.26 0 0 0 .49-.14q-.49-6.82-.66-13.63-.08-3.27-3.31-4.04-.6-.15-.6-.77v-2.83q0-.57.58-.6l8.73-.35q.61-.02.65.59l.16 2.86q.04.6-.5.86c-1.34.64-2.25 1.66-2.19 3.28q.59 16.31 1.36 32.82.03.74-.7.79l-4.37.31q-.55.04-.8-.44l-14.77-27.51a.31.31 0 0 0-.59.17q.66 10.87 1 20.3.1 2.9 3.07 3.62.5.12.55.63l.32 3.02a.66.65-5.1 0 1-.61.72l-8.2.51Z"/></svg>